<svg width="131" height="32" viewBox="0 0 131 32" fill="none" xmlns="http://www.w3.org/2000/svg">
<path d="M21.2248 23.0629H2.11305C1.32214 23.0629 0.887437 22.4302 1.08667 21.637L1.48213 20.1233C1.60359 19.7291 1.84204 19.3814 2.16567 19.1266C2.48929 18.8718 2.88269 18.7221 3.29338 18.6974H18.0249C18.4319 18.6733 18.8215 18.5232 19.1399 18.2679C19.4584 18.0125 19.69 17.6644 19.8029 17.2714L20.2256 15.6942C20.4248 14.901 19.9508 14.2682 19.1992 14.2682H4.47371C4.30141 14.2792 4.12907 14.2474 3.97185 14.1759C3.81463 14.1043 3.67736 13.9951 3.57211 13.8579C3.46686 13.7206 3.39685 13.5595 3.36825 13.3888C3.33965 13.218 3.35333 13.0428 3.40809 12.8786L6.21251 2.4582C6.32779 2.06662 6.56008 1.71994 6.87804 1.46495C7.196 1.20996 7.58431 1.05894 7.99056 1.03228H27.1113C27.2854 1.02368 27.4589 1.05879 27.6161 1.13443C27.7733 1.21008 27.9091 1.32386 28.0113 1.46547C28.1136 1.60708 28.1789 1.77203 28.2015 1.94538C28.2241 2.11873 28.2032 2.295 28.1407 2.4582L27.7453 4.00522C27.624 4.39448 27.3892 4.73837 27.0712 4.99254C26.7532 5.2467 26.3666 5.39947 25.9612 5.43114H11.2297C10.8244 5.45501 10.4354 5.59974 10.1127 5.84679C9.79002 6.09384 9.54825 6.43193 9.41843 6.81771L9.02297 8.40409C8.95708 8.56721 8.93361 8.74446 8.95478 8.91918C8.97594 9.09389 9.04104 9.26035 9.14396 9.40291C9.24687 9.54547 9.38423 9.65946 9.54313 9.73417C9.70203 9.80888 9.87726 9.84186 10.0524 9.83001H24.7808C25.5325 9.83001 26.0065 10.4627 25.8072 11.2559L23.042 21.637C22.9206 22.0324 22.6813 22.381 22.3565 22.6359C22.0316 22.8908 21.6366 23.0398 21.2248 23.0629Z" fill="#293133"/>
<path d="M46.67 23.0631H31.9747C31.5639 23.0874 31.1703 23.237 30.8466 23.4918C30.5229 23.7467 30.2846 24.0946 30.1635 24.489L28.5816 30.4713C28.4601 30.8557 28.225 31.1941 27.9075 31.4417C27.59 31.6893 27.2051 31.8344 26.8036 31.8578H25.2188C25.0466 31.8691 24.8742 31.8377 24.7169 31.7666C24.5596 31.6954 24.4222 31.5866 24.3167 31.4496C24.2111 31.3127 24.1407 31.1519 24.1117 30.9813C24.0827 30.8107 24.0959 30.6355 24.1501 30.4713L31.6578 2.45839C31.7726 2.06659 32.0048 1.71967 32.3229 1.46462C32.6409 1.20957 33.0294 1.05871 33.4358 1.03247H52.5566C53.3475 1.03247 53.7822 1.70759 53.5829 2.45839L48.4511 21.6372C48.3433 22.0335 48.1126 22.3853 47.7925 22.6416C47.4724 22.8979 47.0793 23.0455 46.67 23.0631ZM48.0133 6.89661C48.2126 6.10343 47.7356 5.47069 46.987 5.47069H36.6749C36.2641 5.49499 35.8705 5.64457 35.5468 5.89941C35.2231 6.15424 34.9847 6.50217 34.8637 6.89661L32.1468 17.2383C32.0837 17.3991 32.0624 17.5734 32.085 17.7447C32.1077 17.916 32.1734 18.0786 32.2761 18.2174C32.3788 18.3561 32.5151 18.4664 32.672 18.5376C32.829 18.6089 33.0014 18.639 33.1732 18.6249H43.4701C43.8715 18.6011 44.2562 18.4558 44.5737 18.2083C44.8911 17.9608 45.1262 17.6226 45.2482 17.2383L48.0133 6.89661Z" fill="#293133"/>
<path d="M72.1149 23.063H52.9912C52.2425 23.063 51.7837 22.4303 51.9648 21.6371L54.73 11.256C54.8518 10.862 55.0904 10.5145 55.4139 10.2598C55.7375 10.0051 56.1307 9.85522 56.5412 9.83008H71.2788C71.6851 9.80496 72.0738 9.65446 72.3916 9.3992C72.7093 9.14393 72.9406 8.79638 73.0538 8.40416L73.4885 6.81778C73.5435 6.65698 73.5586 6.48518 73.5326 6.3172C73.5066 6.14922 73.4402 5.99012 73.3391 5.85363C73.2381 5.71714 73.1054 5.60736 72.9526 5.53376C72.7999 5.46017 72.6315 5.42497 72.4621 5.43122H57.6944C57.5227 5.43271 57.3531 5.39292 57.1998 5.31516C57.0466 5.2374 56.9142 5.12395 56.8137 4.98431C56.7132 4.84467 56.6475 4.6829 56.6221 4.51257C56.5968 4.34223 56.6125 4.16828 56.668 4.0053L57.1027 2.45828C57.2167 2.06877 57.4466 1.72348 57.7617 1.46864C58.0768 1.2138 58.4619 1.06158 58.8657 1.03235H77.9894C78.1635 1.02349 78.3371 1.05847 78.4943 1.13411C78.6514 1.20975 78.7872 1.32364 78.8893 1.4654C78.9913 1.60716 79.0563 1.77228 79.0784 1.9457C79.1005 2.11912 79.079 2.29534 79.0158 2.45828L73.9322 21.6371C73.8104 22.0322 73.571 22.3806 73.2462 22.6354C72.9214 22.8903 72.5267 23.0395 72.1149 23.063ZM71.1278 15.6942C71.324 14.901 70.8501 14.2683 70.0984 14.2683H59.7471C59.3366 14.2934 58.9434 14.4433 58.6198 14.6981C58.2963 14.9528 58.0577 15.3002 57.9359 15.6942L57.5434 17.2776C57.4768 17.4404 57.4527 17.6176 57.4734 17.7924C57.494 17.9672 57.5588 18.1339 57.6615 18.2766C57.7642 18.4193 57.9016 18.5334 58.0605 18.6081C58.2194 18.6828 58.3947 18.7156 58.5698 18.7035H68.9211C69.3279 18.6786 69.717 18.5282 70.0353 18.2729C70.3536 18.0177 70.5854 17.67 70.6992 17.2776L71.1278 15.6942Z" fill="#293133"/>
<path d="M102.26 5.4706H96.3342C95.9288 5.49406 95.5396 5.63864 95.2169 5.88575C94.8941 6.13285 94.6524 6.47116 94.5229 6.85716L90.5623 21.6371C90.4547 22.033 90.2245 22.3844 89.905 22.6406C89.5854 22.8969 89.193 23.0448 88.7843 23.063H87.2055C86.4538 23.063 85.9799 22.4303 86.1761 21.6371L90.1276 6.85716C90.3269 6.10333 89.8922 5.4706 89.1013 5.4706H83.1392C82.3876 5.4706 81.9136 4.83786 82.1098 4.04467L82.5445 2.4583C82.6598 2.06672 82.8921 1.72003 83.2101 1.46504C83.528 1.21005 83.9163 1.05904 84.3226 1.03238H103.446C103.62 1.0243 103.793 1.0598 103.95 1.13566C104.107 1.21153 104.242 1.32537 104.344 1.4669C104.446 1.60843 104.511 1.77318 104.534 1.94628C104.556 2.11937 104.535 2.29534 104.473 2.4583L104.077 4.04467C103.955 4.43982 103.716 4.78817 103.391 5.04303C103.066 5.29789 102.672 5.44708 102.26 5.4706Z" fill="#293133"/>
<path d="M123.002 23.0629H103.882C103.13 23.0629 102.656 22.4302 102.855 21.637L107.987 2.4582C108.102 2.0664 108.334 1.71948 108.652 1.46443C108.97 1.20937 109.359 1.05851 109.765 1.03228H128.901C129.075 1.02368 129.249 1.05879 129.406 1.13443C129.563 1.21008 129.699 1.32386 129.801 1.46547C129.903 1.60708 129.969 1.77203 129.991 1.94538C130.014 2.11873 129.993 2.295 129.93 2.4582L124.82 21.637C124.698 22.0324 124.459 22.381 124.134 22.6359C123.809 22.8908 123.414 23.0398 123.002 23.0629ZM124.346 6.89642C124.545 6.10323 124.071 5.4705 123.319 5.4705H113.007C112.597 5.49522 112.203 5.64496 111.88 5.89973C111.556 6.15451 111.317 6.5022 111.196 6.89642L108.479 17.2381C108.417 17.3989 108.396 17.5729 108.419 17.7439C108.442 17.9148 108.508 18.0771 108.611 18.2156C108.713 18.3541 108.849 18.4643 109.005 18.5358C109.162 18.6074 109.334 18.6379 109.505 18.6247H119.818C120.219 18.6013 120.604 18.4562 120.921 18.2086C121.239 17.961 121.474 17.6226 121.596 17.2381L124.346 6.89642Z" fill="#293133"/>
</svg>
