<svg width="24" height="24" viewBox="0 0 24 24" fill="none" xmlns="http://www.w3.org/2000/svg">
<path d="M0.980592 7.79969C0.326864 7.79969 0 7.46449 0 6.79407V3.78947C0 2.5304 0.318693 1.5861 0.956078 0.956566C1.60163 0.318855 2.56588 0 3.84883 0H6.83963C7.5097 0 7.84474 0.327031 7.84474 0.981094C7.84474 1.64333 7.5097 1.97445 6.83963 1.97445H3.87334C3.26047 1.97445 2.7906 2.13797 2.46374 2.465C2.13687 2.78385 1.97344 3.26214 1.97344 3.89985V6.79407C1.97344 7.46449 1.64249 7.79969 0.980592 7.79969ZM23.0072 7.79969C22.3534 7.79969 22.0266 7.46449 22.0266 6.79407V3.89985C22.0266 3.26214 21.859 2.78385 21.524 2.465C21.189 2.13797 20.7191 1.97445 20.1144 1.97445H17.1481C16.4862 1.97445 16.1553 1.64333 16.1553 0.981094C16.1553 0.327031 16.4862 0 17.1481 0H20.1512C21.4341 0 22.3943 0.318855 23.0317 0.956566C23.6772 1.5861 24 2.5304 24 3.78947V6.79407C24 7.46449 23.6691 7.79969 23.0072 7.79969ZM3.84883 24C2.56588 24 1.60163 23.6811 0.956078 23.0434C0.318693 22.4139 0 21.4655 0 20.1983V17.2059C0 16.5355 0.326864 16.2003 0.980592 16.2003C1.64249 16.2003 1.97344 16.5355 1.97344 17.2059V20.1002C1.97344 20.7379 2.13687 21.2161 2.46374 21.535C2.7906 21.862 3.26047 22.0255 3.87334 22.0255H6.83963C7.5097 22.0255 7.84474 22.3567 7.84474 23.0189C7.84474 23.673 7.5097 24 6.83963 24H3.84883ZM17.1481 24C16.4862 24 16.1553 23.673 16.1553 23.0189C16.1553 22.3567 16.4862 22.0255 17.1481 22.0255H20.1144C20.7191 22.0255 21.189 21.862 21.524 21.535C21.859 21.2161 22.0266 20.7379 22.0266 20.1002V17.2059C22.0266 16.5355 22.3534 16.2003 23.0072 16.2003C23.6691 16.2003 24 16.5355 24 17.2059V20.1983C24 21.4655 23.6772 22.4139 23.0317 23.0434C22.3943 23.6811 21.4341 24 20.1512 24H17.1481ZM5.23391 13.3551C4.84168 13.3551 4.53933 13.2611 4.32686 13.0731C4.12257 12.8769 4.02043 12.5989 4.02043 12.2391C4.02043 11.9857 4.09397 11.7609 4.24106 11.5646C4.39632 11.3602 4.62104 11.1886 4.91522 11.0496L16.7436 5.57997C17.0623 5.43281 17.3361 5.35922 17.5649 5.35922C17.8754 5.35922 18.1328 5.46142 18.3371 5.66581C18.5495 5.87021 18.6558 6.12775 18.6558 6.43843C18.6558 6.67552 18.5822 6.9535 18.4351 7.27236L12.9806 19.0087C12.6864 19.6628 12.2819 19.9898 11.7671 19.9898C11.4076 19.9898 11.1338 19.8753 10.9459 19.6464C10.7579 19.4175 10.6639 19.0864 10.6639 18.653L10.6517 13.3674L5.23391 13.3551ZM7.04801 11.7731L11.4974 11.7486C11.7263 11.7486 11.9101 11.8222 12.049 11.9693C12.1879 12.1083 12.2574 12.2841 12.2574 12.4967L12.2329 16.9974L16.6701 7.34594L7.04801 11.7731Z" fill="#81D8D0"/>
</svg>
