<svg width="52" height="52" viewBox="0 0 52 52" fill="none" xmlns="http://www.w3.org/2000/svg">
<rect width="52" height="52" rx="26" fill="#81D8D0"/>
<path d="M26.0088 26.6872C25.6446 26.6872 25.2687 26.4905 24.8811 26.0969L17.163 18.4229C17.4802 18.141 18.0235 18 18.793 18H33.0132C33.8767 18 34.4846 18.1468 34.837 18.4405L27.1366 26.0969C26.7489 26.4905 26.373 26.6872 26.0088 26.6872ZM16.2467 32.1145C16.0822 31.8209 16 31.348 16 30.696V20.9515C16 20.2761 16.091 19.7856 16.2731 19.4802L22.6432 25.7621L16.2467 32.1145ZM18.9868 33.6564C18.1175 33.6564 17.4949 33.5007 17.1189 33.1894L23.6211 26.7313L24.141 27.2423C24.746 27.8297 25.3686 28.1233 26.0088 28.1233C26.649 28.1233 27.2717 27.8297 27.8767 27.2423L28.3965 26.7225L34.9075 33.1982C34.5668 33.5037 34 33.6564 33.207 33.6564H18.9868ZM35.7621 32.1057L29.3744 25.7621L35.7357 19.4978C35.9119 19.7915 36 20.2761 36 20.9515V30.696C36 31.3421 35.9207 31.812 35.7621 32.1057Z" fill="#363A40"/>
</svg>
