<svg width="52" height="52" viewBox="0 0 52 52" fill="none" xmlns="http://www.w3.org/2000/svg">
<rect width="52" height="52" rx="26" fill="#81D8D0"/>
<path d="M21.5172 30.4648C20.4723 29.4273 19.5319 28.3342 18.6959 27.1854C17.8669 26.0366 17.2086 24.8947 16.721 23.7598C16.2403 22.6179 16 21.5283 16 20.4909C16 19.8085 16.1219 19.1645 16.3657 18.5587C16.6095 17.953 16.9962 17.403 17.5256 16.9086C18.1595 16.3029 18.8422 16 19.5737 16C19.8802 16 20.1693 16.0627 20.441 16.188C20.7196 16.3133 20.9565 16.5152 21.1515 16.7937L23.419 19.9791C23.6071 20.2367 23.7429 20.4769 23.8265 20.6997C23.9171 20.9156 23.9624 21.1175 23.9624 21.3055C23.9624 21.5561 23.8927 21.7963 23.7534 22.0261C23.621 22.2559 23.4364 22.4926 23.1996 22.7363L22.4368 23.5091C22.3323 23.6205 22.28 23.7528 22.28 23.906C22.28 23.9896 22.2905 24.0696 22.3114 24.1462C22.3393 24.2228 22.3671 24.2889 22.395 24.3446C22.5761 24.6789 22.8896 25.107 23.3354 25.6292C23.7813 26.1445 24.2654 26.6667 24.7879 27.1958C25.3103 27.725 25.8328 28.2124 26.3553 28.658C26.8777 29.0966 27.3062 29.4064 27.6405 29.5875C27.6963 29.6153 27.7625 29.6432 27.8391 29.671C27.9157 29.6989 27.9958 29.7128 28.0794 29.7128C28.2466 29.7128 28.3824 29.6571 28.4869 29.5457L29.2497 28.7833C29.4936 28.5396 29.7304 28.3516 29.9603 28.2193C30.1902 28.087 30.427 28.0209 30.6708 28.0209C30.8659 28.0209 31.0714 28.0661 31.2874 28.1567C31.5033 28.2402 31.7402 28.3725 31.9979 28.5535L35.2267 30.8407C35.4984 31.0357 35.6935 31.2654 35.8119 31.53C35.9373 31.7946 36 32.0766 36 32.376C36 32.7311 35.9199 33.0862 35.7597 33.4413C35.5994 33.7963 35.3765 34.1305 35.0909 34.4439C34.6033 34.9869 34.0599 35.3803 33.4608 35.624C32.8617 35.8747 32.2139 36 31.5172 36C30.4932 36 29.4065 35.7563 28.2571 35.2689C27.1076 34.7815 25.9547 34.1201 24.7983 33.2846C23.6489 32.4491 22.5552 31.5091 21.5172 30.4648Z" fill="#363A40"/>
</svg>
