<svg width="64" height="66" viewBox="0 0 64 66" fill="none" xmlns="http://www.w3.org/2000/svg">
<g filter="url(#filter0_d_290_1405)">
<path d="M24.4362 46C23.2836 46 22.3819 45.7188 21.7309 45.1564C21.0905 44.604 20.749 43.7906 20.7064 42.716L19.6978 21.0988H17.5848C17.1472 21.0988 16.7737 20.9582 16.4642 20.677C16.1547 20.3958 16 20.0443 16 19.6225C16 19.2108 16.1547 18.8643 16.4642 18.5831C16.7737 18.3019 17.1472 18.1613 17.5848 18.1613H46.4152C46.8634 18.1613 47.237 18.3019 47.5358 18.5831C47.8453 18.8542 48 19.2007 48 19.6225C48 20.0443 47.8453 20.3958 47.5358 20.677C47.237 20.9582 46.8634 21.0988 46.4152 21.0988H44.3182L43.3097 42.716C43.2563 43.7906 42.9095 44.604 42.2691 45.1564C41.6288 45.7188 40.727 46 39.5638 46H24.4362ZM26.8374 41.2096C27.2003 41.2096 27.4884 41.1091 27.7019 40.9083C27.9153 40.7074 28.0167 40.4463 28.006 40.1249L27.5258 24.3677C27.5151 24.0464 27.3977 23.7903 27.1736 23.5995C26.9601 23.4087 26.6827 23.3132 26.3412 23.3132C25.9783 23.3132 25.6902 23.4137 25.4767 23.6145C25.274 23.8053 25.1726 24.0614 25.1726 24.3828L25.6688 40.14C25.6688 40.4614 25.7756 40.7225 25.989 40.9233C26.2131 41.1142 26.4959 41.2096 26.8374 41.2096ZM32.008 41.2096C32.3602 41.2096 32.643 41.1142 32.8564 40.9233C33.0805 40.7225 33.1926 40.4614 33.1926 40.14V24.3677C33.1926 24.0564 33.0805 23.8053 32.8564 23.6145C32.643 23.4137 32.3602 23.3132 32.008 23.3132C31.6452 23.3132 31.3517 23.4137 31.1276 23.6145C30.9141 23.8053 30.8074 24.0564 30.8074 24.3677V40.14C30.8074 40.4614 30.9141 40.7225 31.1276 40.9233C31.3517 41.1142 31.6452 41.2096 32.008 41.2096ZM37.1626 41.2096C37.5041 41.2096 37.7816 41.1142 37.995 40.9233C38.2191 40.7225 38.3365 40.4614 38.3472 40.14L38.8274 24.3828C38.8274 24.0614 38.7207 23.8053 38.5073 23.6145C38.3045 23.4137 38.0217 23.3132 37.6588 23.3132C37.3173 23.3132 37.0345 23.4087 36.8104 23.5995C36.597 23.7903 36.4849 24.0514 36.4742 24.3828L35.994 40.1249C35.9833 40.4463 36.0847 40.7074 36.2981 40.9083C36.5116 41.1091 36.7997 41.2096 37.1626 41.2096ZM24.3722 18.7337V15.9318C24.3722 14.6965 24.7724 13.7324 25.5728 13.0394C26.3839 12.3465 27.5098 12 28.9505 12H35.0335C36.4742 12 37.5948 12.3465 38.3952 13.0394C39.1956 13.7324 39.5958 14.6965 39.5958 15.9318V18.7337H36.01V16.0673C36.01 15.756 35.9033 15.51 35.6898 15.3292C35.4764 15.1384 35.1829 15.043 34.8094 15.043H29.1906C28.8171 15.043 28.5183 15.1384 28.2941 15.3292C28.0807 15.51 27.974 15.756 27.974 16.0673V18.7337H24.3722Z" fill="url(#paint0_linear_290_1405)"/>
</g>
<defs>
<filter id="filter0_d_290_1405" x="0" y="0" width="64" height="66" filterUnits="userSpaceOnUse" color-interpolation-filters="sRGB">
<feFlood flood-opacity="0" result="BackgroundImageFix"/>
<feColorMatrix in="SourceAlpha" type="matrix" values="0 0 0 0 0 0 0 0 0 0 0 0 0 0 0 0 0 0 127 0" result="hardAlpha"/>
<feOffset dy="4"/>
<feGaussianBlur stdDeviation="8"/>
<feComposite in2="hardAlpha" operator="out"/>
<feColorMatrix type="matrix" values="0 0 0 0 0.998485 0 0 0 0 0.204223 0 0 0 0 0.204223 0 0 0 0.26 0"/>
<feBlend mode="normal" in2="BackgroundImageFix" result="effect1_dropShadow_290_1405"/>
<feBlend mode="normal" in="SourceGraphic" in2="effect1_dropShadow_290_1405" result="shape"/>
</filter>
<linearGradient id="paint0_linear_290_1405" x1="32" y1="12" x2="32" y2="46" gradientUnits="userSpaceOnUse">
<stop stop-color="#FF5252"/>
<stop offset="1" stop-color="#C73131"/>
</linearGradient>
</defs>
</svg>
