<svg width="24" height="24" viewBox="0 0 24 24" fill="none" xmlns="http://www.w3.org/2000/svg">
<path d="M12 24C10.3608 24 8.81569 23.6863 7.36471 23.0588C5.92157 22.4314 4.64706 21.5647 3.54118 20.4588C2.43529 19.3529 1.56863 18.0784 0.941176 16.6353C0.313725 15.1843 0 13.6392 0 12C0 10.3608 0.313725 8.81961 0.941176 7.37647C1.56863 5.92549 2.43137 4.64706 3.52941 3.54118C4.63529 2.43529 5.9098 1.56863 7.35294 0.941176C8.80392 0.313725 10.349 0 11.9882 0C13.6275 0 15.1725 0.313725 16.6235 0.941176C18.0745 1.56863 19.3529 2.43529 20.4588 3.54118C21.5647 4.64706 22.4314 5.92549 23.0588 7.37647C23.6863 8.81961 24 10.3608 24 12C24 13.6392 23.6863 15.1843 23.0588 16.6353C22.4314 18.0784 21.5647 19.3529 20.4588 20.4588C19.3529 21.5647 18.0745 22.4314 16.6235 23.0588C15.1804 23.6863 13.6392 24 12 24ZM12 22C13.3882 22 14.6863 21.7412 15.8941 21.2235C17.102 20.7059 18.1647 19.9922 19.0824 19.0824C20 18.1647 20.7137 17.102 21.2235 15.8941C21.7412 14.6863 22 13.3882 22 12C22 10.6118 21.7412 9.31373 21.2235 8.10588C20.7059 6.89804 19.9882 5.83529 19.0706 4.91765C18.1608 4 17.098 3.28627 15.8824 2.77647C14.6745 2.25882 13.3765 2 11.9882 2C10.6 2 9.30196 2.25882 8.09412 2.77647C6.88627 3.28627 5.82745 4 4.91765 4.91765C4.00784 5.83529 3.29412 6.89804 2.77647 8.10588C2.26667 9.31373 2.01176 10.6118 2.01176 12C2.01176 13.3882 2.26667 14.6863 2.77647 15.8941C3.29412 17.102 4.00784 18.1647 4.91765 19.0824C5.83529 19.9922 6.89804 20.7059 8.10588 21.2235C9.31373 21.7412 10.6118 22 12 22ZM12.0118 6C12.2627 6 12.4706 6.08235 12.6353 6.24706C12.8 6.41176 12.8824 6.62353 12.8824 6.88235V12.7647L12.8 15.2588L13.9882 13.8353L15.3765 12.4235C15.5333 12.251 15.7412 12.1647 16 12.1647C16.2431 12.1647 16.4471 12.2471 16.6118 12.4118C16.7765 12.5765 16.8588 12.7765 16.8588 13.0118C16.8588 13.2627 16.7804 13.4667 16.6235 13.6235L12.6941 17.5412C12.4745 17.7608 12.2471 17.8706 12.0118 17.8706C11.7765 17.8706 11.549 17.7608 11.3294 17.5412L7.4 13.6235C7.24314 13.4745 7.16471 13.2706 7.16471 13.0118C7.16471 12.7765 7.24314 12.5765 7.4 12.4118C7.56471 12.2471 7.76863 12.1647 8.01176 12.1647C8.2549 12.1647 8.46274 12.251 8.63529 12.4235L10.0353 13.8353L11.2118 15.2471L11.1294 12.7647V6.88235C11.1294 6.62353 11.2118 6.41176 11.3765 6.24706C11.5412 6.08235 11.7529 6 12.0118 6Z" fill="#363A40"/>
</svg>
