<svg width="24" height="19" viewBox="0 0 24 19" fill="none" xmlns="http://www.w3.org/2000/svg">
<path d="M3.41304 19C2.27536 19 1.42029 18.7133 0.847826 18.1399C0.282609 17.5738 0 16.721 0 15.5815V3.40743C0 2.2753 0.268116 1.42619 0.804348 0.860128C1.34783 0.286709 2.1087 0 3.08696 0H20.587C21.7246 0 22.5761 0.286709 23.1413 0.860128C23.7138 1.42619 24 2.2753 24 3.40743V15.5815C24 16.721 23.7283 17.5738 23.1848 18.1399C22.6486 18.7133 21.8913 19 20.913 19H3.41304ZM3.34783 17.3128H20.6522C21.1884 17.3128 21.6014 17.1695 21.8913 16.8828C22.1884 16.5887 22.337 16.1586 22.337 15.5926V3.41846C22.337 2.84504 22.1884 2.41497 21.8913 2.12826C21.6014 1.8342 21.1884 1.68717 20.6522 1.68717H3.34783C2.80435 1.68717 2.38768 1.8342 2.09783 2.12826C1.80797 2.41497 1.66304 2.84136 1.66304 3.40743V15.5815C1.66304 16.155 1.80797 16.5887 2.09783 16.8828C2.38768 17.1695 2.80435 17.3128 3.34783 17.3128ZM12.0217 12.4388C11.6377 12.4388 11.2572 12.3542 10.8804 12.1851C10.5109 12.0161 10.1377 11.7404 9.76087 11.3581L0.880435 2.51422L2.02174 1.35636L10.7065 10.0569C10.9384 10.2848 11.1594 10.4575 11.3696 10.5752C11.587 10.6854 11.8043 10.7406 12.0217 10.7406C12.2319 10.7406 12.442 10.6854 12.6522 10.5752C12.8696 10.4649 13.0978 10.2921 13.337 10.0569L21.9783 1.40046L23.1087 2.55833L14.2826 11.3581C13.8986 11.7404 13.5217 12.0161 13.1522 12.1851C12.7826 12.3542 12.4058 12.4388 12.0217 12.4388ZM21.8696 17.5554L14.837 10.498L15.9674 9.35113L23 16.3976L21.8696 17.5554ZM1.03261 16.4086L8.06522 9.35113L9.20652 10.498L2.16304 17.5665L1.03261 16.4086Z" fill="#363A40"/>
</svg>
