<svg width="24" height="19" viewBox="0 0 24 19" fill="none" xmlns="http://www.w3.org/2000/svg">
<path d="M22.9517 15.0433C22.9517 16.0204 22.7209 16.76 22.2595 17.2621C21.7981 17.771 21.106 18.0254 20.1832 18.0254H3.12468C2.36472 18.0254 1.79474 17.7913 1.41476 17.3232C1.03478 16.8617 0.82782 16.1696 0.793893 15.2468L4.67176 11.7455C4.8821 11.5556 5.09584 11.4131 5.31298 11.3181C5.53011 11.2231 5.75403 11.1756 5.98473 11.1756C6.22222 11.1756 6.45632 11.2265 6.68702 11.3282C6.92451 11.4232 7.14843 11.5657 7.35878 11.7557L9.24173 13.4555L13.8422 9.34351C14.0797 9.13995 14.324 8.98728 14.5751 8.8855C14.8261 8.78371 15.0908 8.73282 15.369 8.73282C15.6472 8.73282 15.9152 8.78711 16.173 8.89567C16.4309 9.00424 16.6751 9.16031 16.9059 9.36387L22.9517 15.0433ZM7.5827 9.46565C7.14165 9.46565 6.73791 9.36047 6.3715 9.15013C6.01187 8.93299 5.72349 8.64122 5.50636 8.27481C5.28923 7.9084 5.18066 7.50466 5.18066 7.06361C5.18066 6.62935 5.28923 6.22901 5.50636 5.8626C5.72349 5.49618 6.01187 5.20441 6.3715 4.98728C6.73791 4.77014 7.14165 4.66158 7.5827 4.66158C8.02375 4.66158 8.42409 4.77014 8.78371 4.98728C9.14334 5.20441 9.43172 5.49618 9.64885 5.8626C9.86599 6.22901 9.97455 6.62935 9.97455 7.06361C9.97455 7.50466 9.86599 7.9084 9.64885 8.27481C9.43172 8.64122 9.14334 8.93299 8.78371 9.15013C8.42409 9.36047 8.02375 9.46565 7.5827 9.46565ZM3.19593 18.7379C2.13062 18.7379 1.32994 18.4733 0.793893 17.944C0.264631 17.4215 0 16.6378 0 15.5929V3.15522C0 2.10348 0.264631 1.31637 0.793893 0.793893C1.32994 0.264631 2.13062 0 3.19593 0H20.8041C21.8762 0 22.6768 0.264631 23.2061 0.793893C23.7354 1.32316 24 2.11026 24 3.15522V15.5929C24 16.6378 23.7354 17.4215 23.2061 17.944C22.6768 18.4733 21.8762 18.7379 20.8041 18.7379H3.19593ZM3.21628 17.0992H20.7837C21.2858 17.0992 21.6726 16.9669 21.944 16.7023C22.2222 16.4309 22.3613 16.0305 22.3613 15.5013V3.24682C22.3613 2.71756 22.2222 2.31722 21.944 2.0458C21.6726 1.77438 21.2858 1.63868 20.7837 1.63868H3.21628C2.70738 1.63868 2.31722 1.77438 2.0458 2.0458C1.77438 2.31722 1.63868 2.71756 1.63868 3.24682V15.5013C1.63868 16.0305 1.77438 16.4309 2.0458 16.7023C2.31722 16.9669 2.70738 17.0992 3.21628 17.0992Z" fill="#363A40"/>
</svg>
