<svg width="24" height="24" viewBox="0 0 24 24" fill="none" xmlns="http://www.w3.org/2000/svg">
<path d="M12 22.5253C11.8669 22.5253 11.7373 22.5217 11.6112 22.5146C11.4851 22.5075 11.359 22.4968 11.2329 22.4826L10.634 23.6124C10.5639 23.7545 10.4658 23.8576 10.3398 23.9215C10.2137 23.9855 10.0736 24.0103 9.91944 23.9961C9.76532 23.9606 9.63573 23.8895 9.53065 23.783C9.43257 23.6764 9.37653 23.5449 9.36252 23.3886L9.17338 22.1202C8.9282 22.0563 8.68651 21.9781 8.44834 21.8857C8.21016 21.7934 7.97198 21.6974 7.7338 21.598L6.80911 22.44C6.69702 22.5466 6.56743 22.607 6.42032 22.6212C6.28021 22.6425 6.1366 22.6141 5.98949 22.5359C5.85639 22.4506 5.76182 22.3405 5.70578 22.2055C5.65674 22.0776 5.64623 21.9355 5.67426 21.7792L5.93695 20.5321C5.7338 20.3829 5.53065 20.223 5.3275 20.0525C5.12434 19.8891 4.9317 19.715 4.74956 19.5302L3.6042 20.0099C3.45709 20.0809 3.31349 20.0987 3.17338 20.0631C3.03328 20.0276 2.91068 19.9423 2.8056 19.8073C2.70053 19.6936 2.64448 19.5657 2.63748 19.4236C2.63047 19.2744 2.6655 19.1323 2.74256 18.9973L3.41506 17.9101C3.26795 17.7041 3.13135 17.4873 3.00525 17.26C2.88616 17.0326 2.76708 16.7981 2.64799 16.5565L1.39755 16.6205C1.24343 16.6276 1.10333 16.592 0.977233 16.5139C0.858144 16.4286 0.770578 16.3114 0.714536 16.1621C0.672504 16.0129 0.672504 15.8708 0.714536 15.7358C0.756567 15.5937 0.837128 15.4729 0.956217 15.3734L1.94396 14.5847C1.87391 14.336 1.81436 14.0837 1.76532 13.8279C1.72329 13.5721 1.69527 13.3092 1.68126 13.0392L0.483363 12.6555C0.161121 12.5489 0 12.3286 0 11.9947C0 11.6607 0.161121 11.4369 0.483363 11.3232L1.68126 10.9395C1.69527 10.6766 1.72329 10.4172 1.76532 10.1614C1.81436 9.90561 1.87391 9.65336 1.94396 9.40466L0.956217 8.61593C0.837128 8.51645 0.753065 8.39921 0.704028 8.2642C0.661997 8.12919 0.665499 7.98708 0.714536 7.83786C0.770578 7.68864 0.858144 7.57495 0.977233 7.49679C1.10333 7.41152 1.24343 7.37244 1.39755 7.37955L2.64799 7.42218C2.76708 7.18059 2.88616 6.94965 3.00525 6.72938C3.13135 6.502 3.26795 6.28172 3.41506 6.06855L2.74256 4.98139C2.6655 4.85349 2.63047 4.71848 2.63748 4.57637C2.64448 4.43425 2.70053 4.30635 2.8056 4.19266C2.91068 4.05765 3.03328 3.97238 3.17338 3.93686C3.31349 3.90133 3.45709 3.91554 3.6042 3.97949L4.74956 4.44846C4.9317 4.27082 5.12434 4.10029 5.3275 3.93686C5.53065 3.76632 5.7338 3.60644 5.93695 3.45722L5.67426 2.2315C5.63923 2.06096 5.64974 1.90819 5.70578 1.77318C5.76182 1.63818 5.85639 1.53514 5.98949 1.46409C6.1366 1.38593 6.28021 1.35395 6.42032 1.36816C6.56743 1.38237 6.69702 1.44632 6.80911 1.56001L7.7338 2.39138C7.97198 2.28479 8.21016 2.18886 8.44834 2.1036C8.69352 2.01833 8.9352 1.94017 9.17338 1.86911L9.36252 0.611409C9.37653 0.455085 9.43257 0.32363 9.53065 0.217046C9.63573 0.110461 9.76182 0.0394041 9.90893 0.00387581C10.0701 -0.0103355 10.2137 0.0145343 10.3398 0.0784852C10.4729 0.13533 10.5709 0.23481 10.634 0.376923L11.2329 1.50672C11.359 1.49962 11.4851 1.49251 11.6112 1.48541C11.7373 1.4783 11.8669 1.47475 12 1.47475C12.1331 1.47475 12.2592 1.4783 12.3783 1.48541C12.5044 1.49251 12.6375 1.49962 12.7776 1.50672L13.3555 0.366264C13.4186 0.238362 13.5131 0.142436 13.6392 0.0784852C13.7723 0.0145343 13.9194 -0.0103355 14.0806 0.00387581C14.2277 0.0394041 14.3503 0.110461 14.4483 0.217046C14.5534 0.32363 14.6165 0.455085 14.6375 0.611409L14.8161 1.86911C15.0613 1.94017 15.3065 2.01833 15.5517 2.1036C15.7968 2.18886 16.035 2.28479 16.2662 2.39138L17.1804 1.56001C17.2995 1.44632 17.4291 1.38237 17.5692 1.36816C17.7163 1.35395 17.8599 1.38593 18 1.46409C18.1331 1.53514 18.2277 1.63818 18.2837 1.77318C18.3468 1.90819 18.3573 2.05741 18.3152 2.22084L18.0525 3.45722C18.2627 3.60644 18.4659 3.76632 18.662 3.93686C18.8651 4.10029 19.0578 4.27082 19.2399 4.44846L20.3853 3.97949C20.5394 3.91554 20.683 3.90133 20.8161 3.93686C20.9562 3.97238 21.0823 4.05765 21.1944 4.19266C21.2925 4.30635 21.345 4.43425 21.352 4.57637C21.359 4.71848 21.324 4.85349 21.2469 4.98139L20.5744 6.06855C20.7285 6.28172 20.8652 6.502 20.9842 6.72938C21.1103 6.94965 21.2294 7.18059 21.3415 7.42218L22.6025 7.37955C22.7566 7.37244 22.8932 7.41152 23.0123 7.49679C23.1384 7.57495 23.2259 7.68864 23.275 7.83786C23.324 7.98708 23.324 8.12919 23.275 8.2642C23.2329 8.39921 23.1524 8.51645 23.0333 8.61593L22.0455 9.40466C22.1156 9.65336 22.1751 9.90561 22.2242 10.1614C22.2732 10.4172 22.3082 10.6801 22.3292 10.9501L23.5061 11.3232C23.6602 11.38 23.7793 11.4689 23.8634 11.5896C23.9545 11.7033 24 11.8383 24 11.9947C24 12.151 23.9545 12.2896 23.8634 12.4104C23.7793 12.524 23.6602 12.6058 23.5061 12.6555L22.3292 13.0392C22.3082 13.3092 22.2732 13.5721 22.2242 13.8279C22.1751 14.0837 22.1156 14.336 22.0455 14.5847L23.0438 15.3734C23.1559 15.4729 23.2329 15.5937 23.275 15.7358C23.324 15.8708 23.324 16.0129 23.275 16.1621C23.2259 16.3114 23.1384 16.4286 23.0123 16.5139C22.8932 16.592 22.7566 16.6276 22.6025 16.6205L21.3415 16.5565C21.2294 16.7981 21.1103 17.0326 20.9842 17.26C20.8652 17.4873 20.7285 17.7041 20.5744 17.9101L21.2469 18.9973C21.331 19.1323 21.366 19.2744 21.352 19.4236C21.345 19.5657 21.2925 19.6936 21.1944 19.8073C21.0823 19.9423 20.9562 20.0276 20.8161 20.0631C20.676 20.0987 20.5324 20.0845 20.3853 20.0205L19.2504 19.5302C19.0613 19.715 18.8651 19.8891 18.662 20.0525C18.4659 20.223 18.2627 20.3829 18.0525 20.5321L18.3152 21.7685C18.3853 22.1096 18.2802 22.3654 18 22.5359C17.8599 22.6141 17.7163 22.6425 17.5692 22.6212C17.4291 22.5999 17.2995 22.5395 17.1804 22.44L16.2662 21.598C16.035 21.6974 15.7968 21.7934 15.5517 21.8857C15.3065 21.9781 15.0613 22.0563 14.8161 22.1202L14.6375 23.3886C14.6165 23.5449 14.5534 23.6764 14.4483 23.783C14.3503 23.8895 14.2312 23.9606 14.0911 23.9961C13.9229 24.0103 13.7758 23.9855 13.6497 23.9215C13.5236 23.8576 13.4256 23.7545 13.3555 23.6124L12.7776 22.4826C12.6375 22.4968 12.5044 22.5075 12.3783 22.5146C12.2592 22.5217 12.1331 22.5253 12 22.5253ZM12 20.5854C13.1769 20.5854 14.2732 20.3651 15.289 19.9246C16.3047 19.484 17.1909 18.8694 17.9475 18.0807C18.711 17.2919 19.3065 16.3789 19.7338 15.3414C20.1611 14.304 20.3748 13.192 20.3748 12.0053C20.3748 10.8045 20.1611 9.68533 19.7338 8.64791C19.3065 7.61048 18.711 6.70096 17.9475 5.91933C17.1909 5.13061 16.3047 4.51597 15.289 4.07542C14.2732 3.62776 13.1769 3.40393 12 3.40393C10.8231 3.40393 9.7268 3.62776 8.71103 4.07542C7.69527 4.51597 6.8056 5.13061 6.04203 5.91933C5.28546 6.70096 4.69352 7.61048 4.2662 8.64791C3.83888 9.68533 3.62522 10.8045 3.62522 12.0053C3.62522 13.192 3.83888 14.304 4.2662 15.3414C4.69352 16.3789 5.28546 17.2919 6.04203 18.0807C6.8056 18.8694 7.69527 19.484 8.71103 19.9246C9.7268 20.3651 10.8231 20.5854 12 20.5854ZM9.98249 10.1827L6.47285 4.08608L7.92294 3.29735L11.38 9.30873L9.98249 10.1827ZM14.5744 12.8154V11.1526H21.4571L21.4676 12.8154H14.5744ZM11.38 14.7019L7.79685 20.6707L6.35727 19.85L10.0035 13.7853L11.38 14.7019ZM11.9895 14.9897C11.4431 14.9897 10.9457 14.8547 10.4974 14.5847C10.056 14.3147 9.70228 13.9558 9.43608 13.5082C9.17688 13.0534 9.04729 12.556 9.04729 12.016C9.04729 11.4617 9.17688 10.9608 9.43608 10.5131C9.70228 10.0584 10.056 9.69954 10.4974 9.43663C10.9457 9.17372 11.4431 9.04227 11.9895 9.04227C12.5219 9.04227 13.0088 9.17372 13.4501 9.43663C13.8984 9.69954 14.2522 10.0584 14.5114 10.5131C14.7776 10.9608 14.9107 11.4617 14.9107 12.016C14.9107 12.556 14.7776 13.0534 14.5114 13.5082C14.2522 13.9558 13.8984 14.3147 13.4501 14.5847C13.0088 14.8547 12.5219 14.9897 11.9895 14.9897ZM11.9895 13.295C12.3398 13.295 12.634 13.1707 12.8722 12.922C13.1173 12.6733 13.2399 12.3713 13.2399 12.016C13.2399 11.6536 13.1173 11.3481 12.8722 11.0994C12.634 10.8507 12.3398 10.7263 11.9895 10.7263C11.6252 10.7263 11.3205 10.8507 11.0753 11.0994C10.8371 11.3481 10.718 11.6536 10.718 12.016C10.718 12.3713 10.8371 12.6733 11.0753 12.922C11.3205 13.1707 11.6252 13.295 11.9895 13.295Z" fill="#363A40"/>
</svg>
