<svg width="32" height="32" viewBox="0 0 32 32" fill="none" xmlns="http://www.w3.org/2000/svg">
<path d="M16 32C13.8144 32 11.7542 31.5817 9.81961 30.7451C7.89543 29.9085 6.19608 28.7529 4.72157 27.2784C3.24706 25.8039 2.0915 24.1046 1.2549 22.1804C0.418301 20.2458 0 18.1856 0 16C0 13.8144 0.418301 11.7595 1.2549 9.83529C2.0915 7.90065 3.24183 6.19608 4.70588 4.72157C6.18039 3.24706 7.87974 2.0915 9.80392 1.2549C11.7386 0.418301 13.7987 0 15.9843 0C18.1699 0 20.2301 0.418301 22.1647 1.2549C24.0993 2.0915 25.8039 3.24706 27.2784 4.72157C28.7529 6.19608 29.9085 7.90065 30.7451 9.83529C31.5817 11.7595 32 13.8144 32 16C32 18.1856 31.5817 20.2458 30.7451 22.1804C29.9085 24.1046 28.7529 25.8039 27.2784 27.2784C25.8039 28.7529 24.0993 29.9085 22.1647 30.7451C20.2405 31.5817 18.1856 32 16 32ZM16 29.3333C17.851 29.3333 19.5817 28.9882 21.1922 28.298C22.8026 27.6078 24.2196 26.6562 25.4431 25.4431C26.6667 24.2196 27.6183 22.8026 28.298 21.1922C28.9882 19.5817 29.3333 17.851 29.3333 16C29.3333 14.149 28.9882 12.4183 28.298 10.8078C27.6078 9.19739 26.651 7.78039 25.4275 6.55686C24.2144 5.33333 22.7974 4.3817 21.1765 3.70196C19.566 3.01176 17.8353 2.66667 15.9843 2.66667C14.1333 2.66667 12.4026 3.01176 10.7922 3.70196C9.1817 4.3817 7.76994 5.33333 6.55686 6.55686C5.34379 7.78039 4.39216 9.19739 3.70196 10.8078C3.02222 12.4183 2.68235 14.149 2.68235 16C2.68235 17.851 3.02222 19.5817 3.70196 21.1922C4.39216 22.8026 5.34379 24.2196 6.55686 25.4431C7.78039 26.6562 9.19739 27.6078 10.8078 28.298C12.4183 28.9882 14.149 29.3333 16 29.3333ZM12.2353 9.08235C13.0719 9.08235 13.8092 9.30196 14.4471 9.74118C15.0954 10.1804 15.6131 10.7556 16 11.4667C16.3869 10.7556 16.9046 10.1804 17.5529 9.74118C18.2013 9.30196 18.9386 9.08235 19.7647 9.08235C20.6536 9.08235 21.4379 9.2915 22.1176 9.7098C22.8078 10.1176 23.3516 10.6824 23.749 11.4039C24.1464 12.115 24.3451 12.9359 24.3451 13.8667C24.3451 14.6928 24.1882 15.498 23.8745 16.2824C23.5608 17.0667 23.1373 17.8248 22.6039 18.5569C22.0706 19.2784 21.4745 19.9634 20.8157 20.6118C20.1569 21.2497 19.4771 21.8405 18.7765 22.3843C18.0758 22.9281 17.4065 23.4092 16.7686 23.8275C16.6536 23.9111 16.5229 23.9948 16.3765 24.0784C16.2405 24.1516 16.1255 24.1882 16.0314 24.1882C15.9268 24.1882 15.7961 24.1464 15.6392 24.0627C15.4928 23.9791 15.3516 23.9007 15.2157 23.8275C14.5778 23.4196 13.9085 22.949 13.2078 22.4157C12.5072 21.8719 11.8275 21.2758 11.1686 20.6275C10.5098 19.9791 9.91373 19.2941 9.38039 18.5725C8.85752 17.8405 8.43922 17.0824 8.12549 16.298C7.81177 15.5033 7.6549 14.6928 7.6549 13.8667C7.6549 12.9359 7.84837 12.115 8.23529 11.4039C8.63268 10.6824 9.17647 10.1176 9.86667 9.7098C10.5569 9.2915 11.3464 9.08235 12.2353 9.08235Z" fill="#A0ABBC"/>
</svg>
