<svg width="24" height="24" viewBox="0 0 24 24" fill="none" xmlns="http://www.w3.org/2000/svg">
<path fill-rule="evenodd" clip-rule="evenodd" d="M14.0251 3.39806C12.9067 2.42209 11.0933 2.42209 9.97491 3.39806L2.74819 8.0933C2.03685 8.71403 1.75089 9.61493 1.99488 10.4666L4.56595 19.4409C4.88468 20.5534 6.03019 21.3339 7.34435 21.3339H16.6557C17.9698 21.3339 19.1153 20.5534 19.434 19.4409L22.0051 10.4666C22.2491 9.61493 21.9631 8.71403 21.2518 8.0933L14.0251 3.39806ZM8.62486 2.21996C10.4889 0.593345 13.5111 0.593348 15.3751 2.21996L22.6019 6.9152C23.7874 7.94975 24.264 9.45125 23.8574 10.8707L21.2863 19.845C20.7551 21.6992 18.8459 23 16.6557 23H7.34435C5.15409 23 3.2449 21.6992 2.71369 19.845L0.142616 10.8707C-0.264028 9.45126 0.212569 7.94975 1.39813 6.9152L8.62486 2.21996Z" fill="#81D8D0"/>
<path fill-rule="evenodd" clip-rule="evenodd" d="M4.5 21.5L1 9L12 2L23 9L19 22L4.5 21.5ZM11.9546 14C11.4274 14 11 14.4274 11 14.9546V18.0436C11 18.5708 11.4274 18.9982 11.9546 18.9982C12.4819 18.9982 12.9093 18.5708 12.9093 18.0436V14.9546C12.9093 14.4274 12.4819 14 11.9546 14Z" fill="#81D8D0"/>
</svg>
