<svg width="24" height="24" viewBox="0 0 24 24" fill="none" xmlns="http://www.w3.org/2000/svg">
<path d="M11.9942 24C10.3532 24 8.8089 23.6864 7.36139 23.0591C5.91388 22.4395 4.63667 21.576 3.52975 20.4685C2.43058 19.3611 1.56749 18.0833 0.940493 16.635C0.313498 15.1868 0 13.6418 0 12C0 10.3582 0.313498 8.81317 0.940493 7.36496C1.56749 5.91675 2.43058 4.64279 3.52975 3.54308C4.63667 2.43562 5.91001 1.56825 7.34978 0.940949C8.79729 0.31365 10.3416 0 11.9826 0C13.6313 0 15.1795 0.31365 16.627 0.940949C18.0745 1.56825 19.3517 2.43562 20.4586 3.54308C21.5656 4.64279 22.4325 5.91675 23.0595 7.36496C23.6865 8.81317 24 10.3582 24 12C24 13.6418 23.6865 15.1868 23.0595 16.635C22.4325 18.0833 21.5656 19.3611 20.4586 20.4685C19.3517 21.576 18.0745 22.4395 16.627 23.0591C15.1795 23.6864 13.6352 24 11.9942 24ZM11.9942 21.6302C13.3333 21.6302 14.5835 21.3824 15.7446 20.8867C16.9057 20.3911 17.9274 19.7018 18.8099 18.819C19.6923 17.9361 20.3812 16.9138 20.8766 15.7522C21.372 14.5905 21.6197 13.3398 21.6197 12C21.6197 10.668 21.372 9.4211 20.8766 8.25944C20.3812 7.09003 19.6923 6.06389 18.8099 5.18103C17.9274 4.29816 16.9018 3.60891 15.7329 3.11326C14.5718 2.61762 13.3217 2.3698 11.9826 2.3698C10.6512 2.3698 9.40106 2.61762 8.23222 3.11326C7.07112 3.60891 6.05322 4.29816 5.17852 5.18103C4.30382 6.06389 3.61877 7.09003 3.12337 8.25944C2.62796 9.4211 2.38026 10.668 2.38026 12C2.38026 13.3398 2.62796 14.5905 3.12337 15.7522C3.61877 16.9138 4.30382 17.9361 5.17852 18.819C6.06096 19.7018 7.08273 20.3911 8.24383 20.8867C9.41268 21.3824 10.6628 21.6302 11.9942 21.6302ZM8.65022 18.1104C8.43348 18.1104 8.25931 18.0407 8.12772 17.9013C7.99613 17.7541 7.93033 17.5528 7.93033 17.2972V7.69022C7.93033 7.11713 8.07741 6.67957 8.37155 6.37754C8.6657 6.07551 9.09918 5.92449 9.67199 5.92449H14.3048C14.8699 5.92449 15.2995 6.07551 15.5936 6.37754C15.8955 6.67957 16.0464 7.11713 16.0464 7.69022V17.2972C16.0464 17.5528 15.9806 17.7541 15.8491 17.9013C15.7175 18.0407 15.5394 18.1104 15.3149 18.1104C15.1601 18.1104 15.0169 18.0639 14.8853 17.971C14.7537 17.878 14.5641 17.7115 14.3164 17.4714L12.0406 15.2062C12.0019 15.1675 11.9671 15.1675 11.9361 15.2062L9.66038 17.4714C9.41268 17.7115 9.22303 17.878 9.09144 17.971C8.95985 18.0639 8.81277 18.1104 8.65022 18.1104Z" fill="#363A40"/>
</svg>
