<svg width="24" height="24" viewBox="0 0 24 24" fill="none" xmlns="http://www.w3.org/2000/svg">
<path d="M11.9942 24C10.3532 24 8.8089 23.6864 7.36139 23.0591C5.91388 22.4395 4.63667 21.576 3.52975 20.4685C2.43058 19.3611 1.56749 18.0833 0.940493 16.635C0.313498 15.1868 0 13.6418 0 12C0 10.3582 0.313498 8.81317 0.940493 7.36496C1.56749 5.91675 2.43058 4.64279 3.52975 3.54308C4.63667 2.43562 5.91001 1.56825 7.34978 0.940949C8.79729 0.31365 10.3416 0 11.9826 0C13.6313 0 15.1795 0.31365 16.627 0.940949C18.0745 1.56825 19.3517 2.43562 20.4586 3.54308C21.5656 4.64279 22.4325 5.91675 23.0595 7.36496C23.6865 8.81317 24 10.3582 24 12C24 13.6418 23.6865 15.1868 23.0595 16.635C22.4325 18.0833 21.5656 19.3611 20.4586 20.4685C19.3517 21.576 18.0745 22.4395 16.627 23.0591C15.1795 23.6864 13.6352 24 11.9942 24ZM11.9942 21.6302C13.3333 21.6302 14.5835 21.3824 15.7446 20.8867C16.9057 20.3911 17.9274 19.7018 18.8099 18.819C19.6923 17.9361 20.3812 16.9138 20.8766 15.7522C21.372 14.5905 21.6197 13.3398 21.6197 12C21.6197 10.668 21.372 9.4211 20.8766 8.25944C20.3812 7.09003 19.6923 6.06389 18.8099 5.18103C17.9274 4.29816 16.9018 3.60891 15.7329 3.11326C14.5718 2.61762 13.3217 2.3698 11.9826 2.3698C10.6512 2.3698 9.40106 2.61762 8.23222 3.11326C7.07112 3.60891 6.05322 4.29816 5.17852 5.18103C4.30382 6.06389 3.61877 7.09003 3.12337 8.25944C2.62796 9.4211 2.38026 10.668 2.38026 12C2.38026 13.3398 2.62796 14.5905 3.12337 15.7522C3.61877 16.9138 4.30382 17.9361 5.17852 18.819C6.06096 19.7018 7.08273 20.3911 8.24383 20.8867C9.41268 21.3824 10.6628 21.6302 11.9942 21.6302ZM11.7388 14.3117C11.0034 14.3117 10.6357 13.9826 10.6357 13.3243C10.6357 13.3011 10.6357 13.2778 10.6357 13.2546C10.6357 13.2314 10.6357 13.212 10.6357 13.1965C10.6357 12.6621 10.7673 12.2285 11.0305 11.8955C11.3014 11.5624 11.6459 11.2527 12.0639 10.9661C12.5593 10.6254 12.9269 10.3349 13.1669 10.0949C13.4146 9.85479 13.5385 9.55276 13.5385 9.18877C13.5385 8.7938 13.3914 8.47241 13.0972 8.22459C12.8108 7.96902 12.4315 7.84124 11.9594 7.84124C11.7271 7.84124 11.5104 7.87996 11.3091 7.95741C11.1156 8.03485 10.9337 8.14714 10.7634 8.29429C10.6009 8.43369 10.4538 8.60794 10.3222 8.81704L10.1364 9.06099C10.0281 9.20813 9.89647 9.3243 9.74165 9.40949C9.59458 9.49468 9.41655 9.53727 9.20755 9.53727C8.96759 9.53727 8.75472 9.45595 8.56894 9.29332C8.38316 9.13069 8.29028 8.90997 8.29028 8.63117C8.29028 8.52275 8.29802 8.42207 8.3135 8.32914C8.33672 8.22846 8.36768 8.12778 8.40639 8.02711C8.58442 7.485 8.99468 7.01646 9.63716 6.62149C10.2874 6.22652 11.1118 6.02904 12.1103 6.02904C12.7915 6.02904 13.4185 6.14908 13.9913 6.38916C14.5718 6.62924 15.0363 6.97386 15.3846 7.42304C15.7329 7.87222 15.9071 8.4182 15.9071 9.06099C15.9071 9.7425 15.7329 10.2807 15.3846 10.6757C15.044 11.0707 14.5912 11.4579 14.0261 11.8374C13.6391 12.0852 13.3449 12.3214 13.1437 12.546C12.9424 12.7706 12.8341 13.0339 12.8186 13.3359C12.8186 13.3514 12.8186 13.3746 12.8186 13.4056C12.8186 13.4288 12.8147 13.4521 12.807 13.4753C12.7915 13.7076 12.687 13.9051 12.4935 14.0678C12.3077 14.2304 12.0561 14.3117 11.7388 14.3117ZM11.7155 17.878C11.344 17.878 11.0227 17.758 10.7518 17.5179C10.4886 17.2701 10.357 16.9642 10.357 16.6002C10.357 16.2362 10.4886 15.9342 10.7518 15.6941C11.015 15.4463 11.3362 15.3224 11.7155 15.3224C12.0948 15.3224 12.4161 15.4424 12.6792 15.6825C12.9424 15.9226 13.074 16.2285 13.074 16.6002C13.074 16.9719 12.9424 17.2778 12.6792 17.5179C12.4161 17.758 12.0948 17.878 11.7155 17.878Z" fill="#363A40"/>
</svg>
