<svg width="24" height="20" viewBox="0 0 24 20" fill="none" xmlns="http://www.w3.org/2000/svg">
<path d="M2.89124 18.6301C2.89124 19.0302 2.75293 19.3607 2.4763 19.6217C2.20859 19.8739 1.86503 20 1.44562 20C1.02621 20 0.678193 19.8739 0.401562 19.6217C0.133854 19.3607 0 19.0302 0 18.6301V1.39596C0 0.995869 0.133854 0.665362 0.401562 0.404436C0.678193 0.134812 1.02621 0 1.44562 0C1.86503 0 2.20859 0.134812 2.4763 0.404436C2.75293 0.665362 2.89124 0.995869 2.89124 1.39596V18.6301ZM24 10.0065C24 10.4327 23.8617 10.7806 23.5851 11.0502C23.3084 11.3112 22.9515 11.4416 22.5142 11.4416H10.0792L7.24149 11.3112L11.1634 14.7815L13.8673 17.456C14.01 17.5951 14.1216 17.7517 14.2019 17.9256C14.2822 18.0996 14.3224 18.2866 14.3224 18.4866C14.3224 18.878 14.184 19.2042 13.9074 19.4651C13.6308 19.726 13.2872 19.8565 12.8767 19.8565C12.6804 19.8565 12.4886 19.8174 12.3012 19.7391C12.1227 19.6695 11.9576 19.5564 11.8059 19.3999L3.33296 11.0763C3.18126 10.9285 3.06079 10.7632 2.97156 10.5806C2.89124 10.3979 2.85109 10.2066 2.85109 10.0065C2.85109 9.79778 2.89124 9.60644 2.97156 9.43249C3.06079 9.24984 3.18126 9.08458 3.33296 8.93673L11.8059 0.60013C11.9576 0.443575 12.1227 0.326158 12.3012 0.24788C12.4886 0.169602 12.6804 0.130463 12.8767 0.130463C13.2872 0.130463 13.6308 0.265275 13.9074 0.534899C14.184 0.795825 14.3224 1.12198 14.3224 1.51337C14.3224 1.71342 14.2822 1.90476 14.2019 2.08741C14.1216 2.26136 14.01 2.41357 13.8673 2.54403L11.1634 5.23157L7.25488 8.70189L10.0792 8.57143H22.5142C22.9515 8.57143 23.3084 8.70624 23.5851 8.97586C23.8617 9.23679 24 9.58034 24 10.0065Z" fill="#FF3D3D"/>
</svg>
