<svg width="24" height="24" viewBox="0 0 24 24" fill="none" xmlns="http://www.w3.org/2000/svg">
<path d="M12 24C10.3608 24 8.81569 23.6863 7.36471 23.0588C5.92157 22.4314 4.64706 21.5647 3.54118 20.4588C2.43529 19.3529 1.56863 18.0784 0.941177 16.6353C0.313726 15.1843 0 13.6392 0 12C0 10.3608 0.313726 8.81961 0.941177 7.37647C1.56863 5.92549 2.43137 4.64706 3.52941 3.54118C4.63529 2.43529 5.9098 1.56863 7.35294 0.941177C8.80392 0.313726 10.349 0 11.9882 0C13.6275 0 15.1726 0.313726 16.6235 0.941177C18.0745 1.56863 19.3529 2.43529 20.4588 3.54118C21.5647 4.64706 22.4314 5.92549 23.0588 7.37647C23.6863 8.81961 24 10.3608 24 12C24 13.6392 23.6863 15.1843 23.0588 16.6353C22.4314 18.0784 21.5647 19.3529 20.4588 20.4588C19.3529 21.5647 18.0745 22.4314 16.6235 23.0588C15.1804 23.6863 13.6392 24 12 24ZM12 22C13.3882 22 14.6863 21.7412 15.8941 21.2235C17.102 20.7059 18.1647 19.9922 19.0824 19.0824C20 18.1647 20.7137 17.102 21.2235 15.8941C21.7412 14.6863 22 13.3882 22 12C22 10.6118 21.7412 9.31373 21.2235 8.10588C20.7059 6.89804 19.9882 5.83529 19.0706 4.91765C18.1608 4 17.098 3.28627 15.8824 2.77647C14.6745 2.25882 13.3765 2 11.9882 2C10.6 2 9.30196 2.25882 8.09412 2.77647C6.88627 3.28627 5.82745 4 4.91765 4.91765C4.00784 5.83529 3.29412 6.89804 2.77647 8.10588C2.26667 9.31373 2.01176 10.6118 2.01176 12C2.01176 13.3882 2.26667 14.6863 2.77647 15.8941C3.29412 17.102 4.00784 18.1647 4.91765 19.0824C5.83529 19.9922 6.89804 20.7059 8.10588 21.2235C9.31373 21.7412 10.6118 22 12 22ZM9.94118 18.5765C9.69804 18.5765 9.49412 18.498 9.32941 18.3412C9.16471 18.1843 9.08235 17.9882 9.08235 17.7529C9.08235 17.5176 9.16471 17.3216 9.32941 17.1647C9.49412 17.0078 9.69804 16.9294 9.94118 16.9294H11.4V11.5294H10.1412C9.89804 11.5294 9.69412 11.451 9.52941 11.2941C9.36471 11.1373 9.28235 10.9412 9.28235 10.7059C9.28235 10.4706 9.36471 10.2745 9.52941 10.1176C9.69412 9.96078 9.89804 9.88235 10.1412 9.88235H12.3529C12.651 9.88235 12.8784 9.98039 13.0353 10.1765C13.1922 10.3647 13.2706 10.6196 13.2706 10.9412V16.9294H14.7294C14.9725 16.9294 15.1765 17.0078 15.3412 17.1647C15.5059 17.3216 15.5882 17.5176 15.5882 17.7529C15.5882 17.9882 15.5059 18.1843 15.3412 18.3412C15.1765 18.498 14.9725 18.5765 14.7294 18.5765H9.94118ZM11.8941 7.91765C11.4706 7.91765 11.1098 7.76863 10.8118 7.47059C10.5137 7.17255 10.3647 6.81177 10.3647 6.38824C10.3647 5.95686 10.5137 5.59216 10.8118 5.29412C11.1098 4.99608 11.4706 4.84706 11.8941 4.84706C12.3255 4.84706 12.6863 4.99608 12.9765 5.29412C13.2745 5.59216 13.4235 5.95686 13.4235 6.38824C13.4235 6.81177 13.2745 7.17255 12.9765 7.47059C12.6863 7.76863 12.3255 7.91765 11.8941 7.91765Z" fill="#363A40"/>
</svg>
