<svg width="24" height="16" viewBox="0 0 24 16" fill="none" xmlns="http://www.w3.org/2000/svg">
<path d="M12.0044 15.7105C10.8335 15.7105 9.72411 15.5674 8.67618 15.2812C7.6341 15.0008 6.6652 14.6299 5.76948 14.1684C4.87962 13.7011 4.0805 13.1871 3.37212 12.6263C2.66374 12.0656 2.05781 11.5048 1.55434 10.944C1.05086 10.3774 0.664471 9.85462 0.39517 9.37564C0.131723 8.89081 0 8.49944 0 8.20154C0 7.93868 0.105379 7.60281 0.316136 7.19392C0.526893 6.77918 0.831321 6.32648 1.22942 5.83582C1.63337 5.34515 2.12221 4.84864 2.69594 4.34629C3.27552 3.83809 3.93121 3.35911 4.66301 2.90933L5.75192 3.99581C5.10209 4.38133 4.51665 4.7873 3.99561 5.21372C3.48042 5.64013 3.03842 6.05194 2.66959 6.44915C2.30662 6.84636 2.02561 7.19976 1.82656 7.50935C1.63337 7.81893 1.53677 8.04967 1.53677 8.20154C1.53677 8.40598 1.65971 8.69805 1.9056 9.07773C2.15148 9.45742 2.50274 9.87799 2.95939 10.3395C3.42188 10.7951 3.96926 11.2565 4.60154 11.7238C5.23381 12.1911 5.93926 12.6234 6.71789 13.0206C7.49652 13.412 8.33077 13.7274 9.22064 13.9669C10.1105 14.2064 11.0384 14.3261 12.0044 14.3261C12.5957 14.3261 13.1694 14.2794 13.7256 14.1859C14.2817 14.0925 14.8203 13.9669 15.3414 13.8092L16.4918 14.957C15.8127 15.1906 15.0984 15.3746 14.3491 15.509C13.5997 15.6433 12.8181 15.7105 12.0044 15.7105ZM12.0044 0.692558C13.187 0.692558 14.3022 0.83567 15.3502 1.12189C16.404 1.40228 17.3758 1.77612 18.2656 2.24342C19.1555 2.70488 19.9517 3.216 20.6542 3.77676C21.3626 4.33752 21.9656 4.90121 22.4632 5.46781C22.9608 6.02858 23.3414 6.55137 23.6048 7.0362C23.8683 7.51519 24 7.90363 24 8.20154C24 8.45856 23.8975 8.78859 23.6926 9.19164C23.4936 9.59469 23.2038 10.0357 22.8233 10.5147C22.4427 10.9878 21.9773 11.4727 21.427 11.9692C20.8825 12.4657 20.2649 12.9388 19.5741 13.3886L18.494 12.3109C19.1028 11.937 19.6502 11.5486 20.1361 11.1455C20.622 10.7425 21.0377 10.3511 21.3831 9.97145C21.7344 9.58593 22.0007 9.24129 22.1822 8.93754C22.3696 8.62795 22.4632 8.38262 22.4632 8.20154C22.4632 8.0263 22.3374 7.7576 22.0856 7.39544C21.8397 7.03328 21.4885 6.62147 21.0318 6.16001C20.5752 5.6927 20.0307 5.22248 19.3985 4.74934C18.7662 4.27619 18.0607 3.83809 17.2821 3.43504C16.5035 3.02615 15.6692 2.69904 14.7794 2.45371C13.8895 2.20253 12.9645 2.07694 12.0044 2.07694C11.4599 2.07694 10.936 2.11783 10.4325 2.19961C9.93487 2.28139 9.4431 2.39237 8.95719 2.53257L7.79802 1.38475C8.44786 1.16862 9.11819 0.999226 9.809 0.876559C10.5057 0.753892 11.2375 0.692558 12.0044 0.692558ZM12.0044 13.1082C11.3136 13.1082 10.6696 12.9797 10.0724 12.7227C9.4753 12.4657 8.95133 12.1123 8.50055 11.6625C8.04976 11.2069 7.6985 10.6841 7.44676 10.0941C7.19502 9.49831 7.06623 8.86745 7.06037 8.20154C7.06037 7.81017 7.10428 7.43341 7.1921 7.07125C7.27991 6.70325 7.40578 6.35569 7.5697 6.02858L14.1559 12.6C13.828 12.7577 13.4826 12.8833 13.1196 12.9768C12.7625 13.0644 12.3908 13.1082 12.0044 13.1082ZM16.5093 10.1204L10.0724 3.6979C10.3652 3.56939 10.6725 3.47009 10.9945 3.4C11.3224 3.3299 11.659 3.29485 12.0044 3.29485C12.6835 3.29485 13.3216 3.42044 13.9188 3.67162C14.5159 3.92279 15.0399 4.27327 15.4907 4.72305C15.9415 5.16699 16.2927 5.68686 16.5445 6.28267C16.802 6.87849 16.9308 7.51811 16.9308 8.20154C16.9308 8.54033 16.8928 8.87329 16.8167 9.2004C16.7464 9.52167 16.644 9.82834 16.5093 10.1204ZM18.8364 15.7894L4.1449 1.14818C4.0161 1.01967 3.9517 0.861956 3.9517 0.675034C3.9517 0.482272 4.0161 0.321636 4.1449 0.193128C4.27955 0.058778 4.44054 -0.00547621 4.62788 0.000365081C4.82108 0.000365081 4.98207 0.0646193 5.11087 0.193128L19.7936 14.8343C19.9283 14.9687 19.9985 15.1235 20.0044 15.2987C20.0102 15.4798 19.94 15.6433 19.7936 15.7894C19.659 15.9354 19.498 16.0055 19.3106 15.9997C19.1292 15.9938 18.9711 15.9237 18.8364 15.7894Z" fill="#363A40"/>
</svg>
