<svg width="17" height="24" viewBox="0 0 17 24" fill="none" xmlns="http://www.w3.org/2000/svg">
<path d="M2.7537 24C1.8562 24 1.17083 23.7552 0.697603 23.2657C0.232534 22.7843 0 22.0581 0 21.0872V12.6548C0 11.692 0.232534 10.9699 0.697603 10.4885C1.17083 9.99898 1.8562 9.75421 2.7537 9.75421H13.9521C14.8496 9.75421 15.5309 9.99898 15.9959 10.4885C16.4691 10.9699 16.7058 11.692 16.7058 12.6548V21.0872C16.7058 22.0581 16.4691 22.7843 15.9959 23.2657C15.5309 23.7552 14.8496 24 13.9521 24H2.7537ZM2.81489 22.152H13.8909C14.1601 22.152 14.3641 22.0704 14.5028 21.9072C14.6497 21.7522 14.7231 21.5237 14.7231 21.2218V12.5201C14.7231 12.2183 14.6497 11.9898 14.5028 11.8348C14.3641 11.6798 14.1601 11.6022 13.8909 11.6022H2.81489C2.5538 11.6022 2.34982 11.6798 2.20296 11.8348C2.05609 11.9898 1.98266 12.2183 1.98266 12.5201V21.2218C1.98266 21.5237 2.05609 21.7522 2.20296 21.9072C2.34982 22.0704 2.5538 22.152 2.81489 22.152ZM2.14176 10.6966V6.82917C2.14176 5.29526 2.43549 4.02244 3.02295 3.01071C3.61856 1.99898 4.3896 1.24426 5.33605 0.746558C6.28251 0.248853 7.28608 0 8.34676 0C9.4156 0 10.4233 0.248853 11.3697 0.746558C12.3162 1.24426 13.0831 1.99898 13.6706 3.01071C14.2662 4.02244 14.564 5.29526 14.564 6.82917V10.6966H12.6303V6.57216C12.6303 5.54411 12.4304 4.67924 12.0306 3.97756C11.639 3.27588 11.1168 2.74554 10.464 2.38654C9.81948 2.02754 9.11372 1.84804 8.34676 1.84804C7.58797 1.84804 6.8822 2.02754 6.22948 2.38654C5.58491 2.74554 5.0668 3.27588 4.67517 3.97756C4.28353 4.67924 4.08771 5.54411 4.08771 6.57216V10.6966H2.14176Z" fill="#363A40"/>
</svg>
