<svg width="24" height="22" viewBox="0 0 24 22" fill="none" xmlns="http://www.w3.org/2000/svg">
<path d="M4.19048 22C3.78131 22 3.52028 21.8663 3.40741 21.599C3.30159 21.3388 3.35097 21.075 3.55556 20.8077C3.68959 20.6318 3.88007 20.3962 4.12698 20.1007C4.38095 19.8123 4.64198 19.4958 4.91005 19.1511C5.17813 18.8064 5.41093 18.4723 5.60847 18.1487C5.65079 18.0713 5.65785 17.9974 5.62963 17.9271C5.60847 17.8497 5.55908 17.7899 5.48148 17.7477C4.35273 17.1428 3.37566 16.4217 2.55026 15.5847C1.73192 14.7405 1.10053 13.812 0.656085 12.799C0.218695 11.7861 0 10.7169 0 9.59137C0 8.26187 0.306878 7.01679 0.920635 5.85612C1.54145 4.69544 2.39859 3.67898 3.49206 2.80671C4.59259 1.92742 5.86949 1.24157 7.32275 0.749161C8.77601 0.24972 10.3351 0 12 0C13.6649 0 15.224 0.24972 16.6772 0.749161C18.1305 1.24157 19.4039 1.92742 20.4974 2.80671C21.5979 3.67898 22.455 4.69544 23.0688 5.85612C23.6896 7.01679 24 8.26187 24 9.59137C24 10.6395 23.806 11.6419 23.418 12.5986C23.03 13.5552 22.4691 14.4345 21.7354 15.2365C21.0018 16.0313 20.1129 16.7242 19.0688 17.3151C18.0317 17.906 16.8607 18.3632 15.5556 18.6868C14.2504 19.0104 12.836 19.1722 11.3122 19.1722C11.2487 19.1722 11.1817 19.1687 11.1111 19.1616C11.0406 19.1616 10.97 19.1581 10.8995 19.1511C10.8289 19.1511 10.7549 19.1651 10.6772 19.1933C10.5996 19.2214 10.515 19.2671 10.4233 19.3305C9.97178 19.654 9.45326 19.9706 8.86772 20.2801C8.28924 20.5966 7.70018 20.8851 7.10053 21.1453C6.50794 21.4056 5.95414 21.6131 5.43915 21.7679C4.92416 21.9226 4.50794 22 4.19048 22ZM6.91005 11.2796C7.34744 11.2796 7.72134 11.1249 8.03175 10.8153C8.34215 10.4988 8.49735 10.1225 8.49735 9.68633C8.49735 9.2502 8.33862 8.87738 8.02116 8.56787C7.71076 8.25132 7.34039 8.09305 6.91005 8.09305C6.47266 8.09305 6.09524 8.25132 5.77778 8.56787C5.46737 8.87738 5.31217 9.2502 5.31217 9.68633C5.31217 10.1225 5.46737 10.4988 5.77778 10.8153C6.09524 11.1249 6.47266 11.2796 6.91005 11.2796ZM12 11.2796C12.4444 11.2796 12.8219 11.1249 13.1323 10.8153C13.4427 10.4988 13.5979 10.1225 13.5979 9.68633C13.5979 9.2502 13.4427 8.87738 13.1323 8.56787C12.8219 8.25132 12.4444 8.09305 12 8.09305C11.5626 8.09305 11.1887 8.25132 10.8783 8.56787C10.5679 8.87738 10.4127 9.2502 10.4127 9.68633C10.4127 10.1225 10.5679 10.4988 10.8783 10.8153C11.1887 11.1249 11.5626 11.2796 12 11.2796ZM17.1005 11.2796C17.5309 11.2796 17.9012 11.1249 18.2116 10.8153C18.5291 10.4988 18.6878 10.1225 18.6878 9.68633C18.6878 9.2502 18.5291 8.87738 18.2116 8.56787C17.9012 8.25132 17.5309 8.09305 17.1005 8.09305C16.6561 8.09305 16.2787 8.25132 15.9683 8.56787C15.6578 8.87738 15.5026 9.2502 15.5026 9.68633C15.5026 10.1225 15.6578 10.4988 15.9683 10.8153C16.2787 11.1249 16.6561 11.2796 17.1005 11.2796Z" fill="url(#paint0_linear_290_2494)"/>
<defs>
<linearGradient id="paint0_linear_290_2494" x1="12" y1="0" x2="12" y2="22" gradientUnits="userSpaceOnUse">
<stop stop-color="#9BD6DB"/>
<stop offset="1" stop-color="#88CBCD"/>
</linearGradient>
</defs>
</svg>
