<svg width="23" height="24" viewBox="0 0 23 24" fill="none" xmlns="http://www.w3.org/2000/svg">
<path d="M1.59485 18.8281C1.07842 18.5346 0.683507 18.2045 0.410104 17.8377C0.136701 17.4635 0 16.884 0 16.099V7.38377C0 6.81155 0.110121 6.33838 0.330362 5.96424C0.558197 5.5901 0.915139 5.26731 1.40119 4.99587L9.45518 0.572215C10.1463 0.190738 10.8298 0 11.5057 0C12.1816 0 12.8613 0.190738 13.5448 0.572215L21.6102 4.99587C22.0887 5.26731 22.438 5.5901 22.6582 5.96424C22.8861 6.33838 23 6.81155 23 7.38377V16.099C23 16.884 22.8633 17.4635 22.5899 17.8377C22.3241 18.2045 21.9292 18.5346 21.4052 18.8281L12.4512 23.7359C12.1246 23.912 11.8057 24 11.4943 24C11.1905 24 10.8791 23.912 10.5602 23.7359L1.59485 18.8281ZM2.62011 17.3755L10.6057 21.7662V12.6327L1.73155 7.7359V16.044C1.73155 16.3448 1.7961 16.5979 1.92521 16.8033C2.05432 17.0014 2.28595 17.1921 2.62011 17.3755ZM20.3913 17.3755C20.7178 17.1921 20.9457 17.0014 21.0748 16.8033C21.2039 16.5979 21.2684 16.3448 21.2684 16.044V7.7359L12.3943 12.6327V21.7662L20.3913 17.3755ZM11.5057 11.0922L15.0258 9.16644L6.2313 4.33563L2.71124 6.28336L11.5057 11.0922ZM16.8598 8.16506L20.3001 6.28336L12.793 2.1458C11.9424 1.66896 11.0842 1.66896 10.2184 2.1458L8.0312 3.34525L16.8598 8.16506Z" fill="#363A40"/>
</svg>
