<svg width="24" height="24" viewBox="0 0 24 24" fill="none" xmlns="http://www.w3.org/2000/svg">
<path d="M12 24C10.3549 24 8.81002 23.6868 7.36534 23.0605C5.92067 22.4342 4.64718 21.5699 3.54489 20.4676C2.44259 19.3653 1.57411 18.0919 0.939457 16.6472C0.313152 15.1942 0 13.6451 0 12C0 10.3633 0.313152 8.82255 0.939457 7.37787C1.56576 5.92484 2.43006 4.64718 3.53236 3.54489C4.64301 2.43424 5.92067 1.56576 7.36534 0.939457C8.81002 0.313152 10.3507 0 11.9875 0C13.6326 0 15.1775 0.313152 16.6221 0.939457C18.0668 1.56576 19.3403 2.43424 20.4426 3.54489C21.5532 4.64718 22.4217 5.92484 23.048 7.37787C23.6827 8.82255 24 10.3633 24 12C24 13.6451 23.6868 15.1942 23.0605 16.6472C22.4342 18.0919 21.5658 19.3653 20.4551 20.4676C19.3528 21.5699 18.0793 22.4342 16.6347 23.0605C15.19 23.6868 13.6451 24 12 24ZM12 22.1837C13.4113 22.1837 14.7307 21.9207 15.9582 21.3946C17.1942 20.8685 18.2756 20.142 19.2025 19.215C20.1378 18.2798 20.8643 17.1983 21.382 15.9708C21.9081 14.7349 22.1712 13.4113 22.1712 12C22.1712 10.5971 21.9081 9.28184 21.382 8.05428C20.8643 6.81837 20.1378 5.73695 19.2025 4.81002C18.2756 3.87474 17.1942 3.14405 15.9582 2.61795C14.7307 2.09186 13.4071 1.82881 11.9875 1.82881C10.5762 1.82881 9.25679 2.09186 8.02923 2.61795C6.80167 3.14405 5.72443 3.87474 4.79749 4.81002C3.87056 5.73695 3.14405 6.81837 2.61795 8.05428C2.09186 9.28184 1.82881 10.5971 1.82881 12C1.82881 13.4113 2.09186 14.7349 2.61795 15.9708C3.14405 17.1983 3.87056 18.2798 4.79749 19.215C5.72443 20.142 6.80167 20.8685 8.02923 21.3946C9.26514 21.9207 10.5887 22.1837 12 22.1837ZM6.71399 16.2839C6.43841 16.2839 6.22129 16.2171 6.06263 16.0835C5.91232 15.9499 5.83716 15.7745 5.83716 15.5574C5.83716 15.2234 5.97077 14.9144 6.238 14.6305C6.50522 14.3382 6.77662 14.0418 7.05219 13.7411C7.21086 13.5658 7.33194 13.3445 7.41545 13.0772C7.49896 12.8017 7.55741 12.5136 7.59081 12.2129C7.62422 11.904 7.65344 11.6033 7.6785 11.3111C7.7119 10.1169 7.91649 9.119 8.29228 8.31733C8.66806 7.50731 9.28184 6.95198 10.1336 6.65136C10.2589 6.21712 10.4802 5.85386 10.7975 5.56159C11.1232 5.26931 11.524 5.12317 12 5.12317C12.4676 5.12317 12.8601 5.26931 13.1775 5.56159C13.5031 5.85386 13.7286 6.21712 13.8539 6.65136C14.714 6.95198 15.3278 7.50731 15.6952 8.31733C16.071 9.119 16.2756 10.1169 16.309 11.3111C16.334 11.6033 16.3633 11.904 16.3967 12.2129C16.4384 12.5136 16.4969 12.8017 16.572 13.0772C16.6555 13.3445 16.7766 13.5658 16.9353 13.7411C17.2276 14.0334 17.5031 14.3257 17.762 14.618C18.0292 14.9102 18.1628 15.2234 18.1628 15.5574C18.1628 15.7745 18.0835 15.9499 17.9248 16.0835C17.7745 16.2171 17.5616 16.2839 17.286 16.2839H6.71399ZM12 18.977C11.4489 18.977 10.9896 18.81 10.6221 18.476C10.263 18.1336 10.0626 17.7203 10.0209 17.2359H13.9666C13.9248 17.7203 13.7244 18.1336 13.3653 18.476C13.0063 18.81 12.5511 18.977 12 18.977Z" fill="#363A40"/>
</svg>
