<svg width="24" height="24" viewBox="0 0 24 24" fill="none" xmlns="http://www.w3.org/2000/svg">
<path d="M3.48542 3.48528C3.73912 3.23158 4.04425 3.10473 4.4008 3.10473C4.77107 3.10473 5.07963 3.22815 5.32647 3.475L11.981 10.1295L18.6252 3.48528C18.8721 3.23844 19.1738 3.11501 19.5303 3.11501C19.8937 3.10816 20.2023 3.23158 20.456 3.48528C20.7097 3.73898 20.8331 4.04754 20.8263 4.41095C20.8331 4.77436 20.7131 5.07949 20.4663 5.32633L13.822 11.9706L20.4663 18.6148C20.7131 18.8616 20.8331 19.1668 20.8263 19.5302C20.8331 19.8936 20.7097 20.2021 20.456 20.4558C20.2023 20.7095 19.8937 20.833 19.5303 20.8261C19.1738 20.8261 18.8721 20.7027 18.6252 20.4558L11.981 13.8116L5.32647 20.4661C5.07963 20.713 4.7745 20.833 4.41109 20.8261C4.04768 20.833 3.73912 20.7095 3.48542 20.4558C3.23172 20.2021 3.1083 19.8936 3.11515 19.5302C3.11515 19.1736 3.23858 18.8719 3.48542 18.6251L10.1399 11.9706L3.48542 5.31604C3.23858 5.0692 3.11173 4.76407 3.10487 4.40066C3.10487 4.04411 3.23172 3.73898 3.48542 3.48528Z" fill="#363A40"/>
</svg>
