<svg width="24" height="24" viewBox="0 0 24 24" fill="none" xmlns="http://www.w3.org/2000/svg">
<path d="M22.361 1.66525C23.0132 2.3178 23.4494 3.10169 23.6697 4.01695C23.8899 4.9322 24 6.0339 24 7.32203V16.678C24 17.9661 23.8899 19.0678 23.6697 19.9831C23.4494 20.8983 23.0132 21.6822 22.361 22.3347C21.6919 23.0042 20.8957 23.4492 19.9725 23.6695C19.0577 23.8898 17.9608 24 16.6818 24H7.31816C6.03917 24 4.9423 23.8898 4.02753 23.6695C3.11276 23.4492 2.3208 23.0042 1.65167 22.3347C0.991001 21.6822 0.550556 20.8983 0.330334 19.9831C0.110111 19.0678 0 17.9661 0 16.678V7.29661C0 6.01695 0.110111 4.92373 0.330334 4.01695C0.550556 3.10169 0.991001 2.3178 1.65167 1.66525C2.31233 0.995763 3.10005 0.550847 4.01482 0.330508C4.93806 0.110169 6.03494 0 7.30545 0H16.6818C17.9608 0 19.0577 0.110169 19.9725 0.330508C20.8957 0.550847 21.6919 0.995763 22.361 1.66525ZM5.78084 12C5.78084 12.4237 5.92059 12.7797 6.20011 13.0678C6.48809 13.3475 6.84383 13.4873 7.26734 13.4873H10.5199V16.7415C10.5199 17.1653 10.6596 17.5169 10.9391 17.7966C11.2186 18.0763 11.5744 18.2161 12.0064 18.2161C12.4383 18.2161 12.7941 18.0763 13.0736 17.7966C13.3616 17.5169 13.5056 17.1653 13.5056 16.7415V13.4873H16.7708C17.1943 13.4873 17.5458 13.3475 17.8253 13.0678C18.1048 12.7797 18.2446 12.4237 18.2446 12C18.2446 11.5593 18.1048 11.1992 17.8253 10.9195C17.5458 10.6314 17.1943 10.4873 16.7708 10.4873H13.5056V7.23305C13.5056 6.80932 13.3616 6.45763 13.0736 6.17797C12.7941 5.88983 12.4383 5.74576 12.0064 5.74576C11.5744 5.74576 11.2186 5.88983 10.9391 6.17797C10.6596 6.45763 10.5199 6.80932 10.5199 7.23305V10.4873H7.26734C6.84383 10.4873 6.48809 10.6314 6.20011 10.9195C5.92059 11.1992 5.78084 11.5593 5.78084 12Z" fill="#81D8D0"/>
</svg>
