<svg width="20" height="24" viewBox="0 0 20 24" fill="none" xmlns="http://www.w3.org/2000/svg">
<path d="M9.99408 24C9.89145 24 9.76515 23.9764 9.61516 23.9292C9.47306 23.8899 9.32307 23.831 9.16519 23.7523C7.46793 22.8246 6.03118 21.9912 4.85494 21.2521C3.6866 20.5209 2.74324 19.8093 2.02487 19.1174C1.31439 18.4256 0.797316 17.6786 0.473653 16.8767C0.157884 16.0668 0 15.1233 0 14.0462V5.13022C0 4.43047 0.138149 3.91941 0.414446 3.59705C0.698638 3.26683 1.13282 2.97985 1.71699 2.73612C1.9775 2.62604 2.34458 2.48059 2.81824 2.29975C3.29189 2.11892 3.81685 1.92629 4.39313 1.72187C4.96941 1.50958 5.54174 1.30123 6.11012 1.09681C6.67851 0.892383 7.19558 0.711548 7.66134 0.5543C8.13499 0.389189 8.50207 0.271253 8.76258 0.200491C8.95994 0.153317 9.16519 0.110074 9.37833 0.0707617C9.59147 0.0235872 9.79672 0 9.99408 0C10.1993 0 10.4085 0.019656 10.6217 0.0589681C10.8427 0.0982801 11.048 0.145455 11.2374 0.200491C11.4979 0.286978 11.8611 0.412776 12.3268 0.577887C12.8005 0.742998 13.3215 0.927764 13.8899 1.13219C14.4662 1.32875 15.0385 1.52924 15.6069 1.73366C16.1831 1.93808 16.7081 2.13071 17.1818 2.31155C17.6554 2.48452 18.0225 2.62604 18.283 2.73612C18.8751 2.98772 19.3093 3.27469 19.5856 3.59705C19.8619 3.91941 20 4.43047 20 5.13022V14.0462C20 15.1233 19.8421 16.0668 19.5263 16.8767C19.2106 17.6786 18.6935 18.4295 17.9751 19.1292C17.2647 19.8211 16.3213 20.5327 15.1451 21.2639C13.9767 21.9951 12.54 22.8246 10.8348 23.7523C10.6769 23.831 10.523 23.8899 10.373 23.9292C10.2309 23.9764 10.1046 24 9.99408 24ZM9.99408 21.5115C10.0809 21.5115 10.1756 21.4919 10.2783 21.4526C10.3809 21.4133 10.5151 21.3425 10.6809 21.2403C12.015 20.4383 13.136 19.7504 14.0438 19.1764C14.9595 18.5946 15.6898 18.0442 16.2345 17.5253C16.7871 17.0064 17.1818 16.4442 17.4186 15.8388C17.6554 15.2256 17.7738 14.4826 17.7738 13.6098V5.50762C17.7738 5.30319 17.7462 5.14988 17.6909 5.04767C17.6357 4.93759 17.5291 4.85504 17.3712 4.8C17.0081 4.6742 16.5936 4.52875 16.1279 4.36364C15.67 4.19853 15.1845 4.02555 14.6714 3.84472C14.1662 3.66388 13.6649 3.48305 13.1676 3.30221C12.6702 3.12138 12.2005 2.95233 11.7584 2.79509C11.3164 2.62998 10.9374 2.48452 10.6217 2.35872C10.4875 2.31155 10.3691 2.27617 10.2664 2.25258C10.1717 2.22899 10.0809 2.2172 9.99408 2.2172C9.91514 2.2172 9.82435 2.22899 9.72173 2.25258C9.627 2.27617 9.51253 2.31155 9.37833 2.35872C9.06256 2.48452 8.68364 2.62604 8.24156 2.78329C7.79949 2.94054 7.32583 3.10565 6.8206 3.27862C6.32327 3.4516 5.81804 3.6285 5.30491 3.80934C4.79968 3.99017 4.31419 4.16708 3.84843 4.34005C3.39057 4.50516 2.98796 4.65848 2.64062 4.8C2.47484 4.8629 2.36432 4.94545 2.30906 5.04767C2.2538 5.14988 2.22617 5.30319 2.22617 5.50762V13.6098C2.22617 14.4747 2.34458 15.2098 2.58141 15.8152C2.81824 16.4206 3.20505 16.9828 3.74186 17.5017C4.28656 18.0128 5.01283 18.5592 5.92066 19.141C6.83639 19.7229 7.96921 20.4226 9.31912 21.2403C9.4849 21.3425 9.6191 21.4133 9.72173 21.4526C9.82435 21.4919 9.91514 21.5115 9.99408 21.5115ZM10.0059 13.3268C9.31912 13.3268 8.96388 12.9808 8.9402 12.2889L8.77442 6.55725C8.75863 6.2113 8.86521 5.92826 9.09414 5.70811C9.32307 5.48796 9.6191 5.37789 9.98224 5.37789C10.3454 5.37789 10.6454 5.49189 10.8822 5.7199C11.119 5.94005 11.2295 6.21916 11.2137 6.55725L11.0243 12.2889C11.0085 12.9808 10.669 13.3268 10.0059 13.3268ZM10.0059 17.2423C9.6191 17.2423 9.28755 17.1204 9.01125 16.8767C8.74285 16.6251 8.60864 16.3145 8.60864 15.945C8.60864 15.5754 8.74285 15.2688 9.01125 15.0251C9.28755 14.7735 9.6191 14.6477 10.0059 14.6477C10.3848 14.6477 10.7085 14.7695 10.9769 15.0133C11.2532 15.257 11.3914 15.5676 11.3914 15.945C11.3914 16.3224 11.2532 16.6329 10.9769 16.8767C10.7006 17.1204 10.3769 17.2423 10.0059 17.2423Z" fill="#363A40"/>
</svg>
