<svg width="24" height="24" viewBox="0 0 24 24" fill="none" xmlns="http://www.w3.org/2000/svg">
<path d="M2.95925 16.8652C2.95925 17.2414 2.8255 17.559 2.55799 17.8182C2.29885 18.0773 1.97701 18.2069 1.59248 18.2069C1.22466 18.2069 0.907001 18.0773 0.639498 17.8182C0.380355 17.559 0.250784 17.2414 0.250784 16.8652C0.250784 16.4974 0.380355 16.1797 0.639498 15.9122C0.907001 15.6447 1.22466 15.511 1.59248 15.511C1.97701 15.511 2.29885 15.6447 2.55799 15.9122C2.8255 16.1797 2.95925 16.4974 2.95925 16.8652ZM2.95925 21.7806C2.95925 22.1567 2.8255 22.4744 2.55799 22.7335C2.29885 23.001 1.97701 23.1348 1.59248 23.1348C1.22466 23.1348 0.907001 23.001 0.639498 22.7335C0.380355 22.4744 0.250784 22.1567 0.250784 21.7806C0.250784 21.4044 0.380355 21.0826 0.639498 20.815C0.907001 20.5475 1.22466 20.4138 1.59248 20.4138C1.97701 20.4138 2.29885 20.5475 2.55799 20.815C2.8255 21.0826 2.95925 21.4044 2.95925 21.7806ZM23.5486 16.8652C23.5486 17.1411 23.4441 17.3751 23.2351 17.5674C23.0345 17.7513 22.7837 17.8433 22.4828 17.8433H5.60502C5.29572 17.8433 5.04075 17.7513 4.84013 17.5674C4.6395 17.3751 4.53919 17.1411 4.53919 16.8652C4.53919 16.5893 4.6395 16.3595 4.84013 16.1755C5.04075 15.9916 5.29572 15.8997 5.60502 15.8997H22.4828C22.7837 15.8997 23.0345 15.9916 23.2351 16.1755C23.4441 16.3595 23.5486 16.5893 23.5486 16.8652ZM23.5486 21.7806C23.5486 22.0564 23.4441 22.2863 23.2351 22.4702C23.0345 22.6625 22.7837 22.7586 22.4828 22.7586H5.60502C5.29572 22.7586 5.04075 22.6625 4.84013 22.4702C4.6395 22.2863 4.53919 22.0564 4.53919 21.7806C4.53919 21.5047 4.6395 21.2748 4.84013 21.0909C5.04075 20.907 5.29572 20.815 5.60502 20.815H22.4828C22.7837 20.815 23.0345 20.907 23.2351 21.0909C23.4441 21.2748 23.5486 21.5047 23.5486 21.7806ZM3.47335 0H20.5266C21.8056 0 22.7043 0.288401 23.2226 0.865204C23.7409 1.43365 24 2.32811 24 3.54859V9.37931C24 10.5998 23.7409 11.4984 23.2226 12.0752C22.7043 12.6437 21.8056 12.9279 20.5266 12.9279H3.47335C2.19436 12.9279 1.29572 12.6437 0.777429 12.0752C0.259143 11.4984 0 10.5998 0 9.37931V3.54859C0 2.32811 0.259143 1.43365 0.777429 0.865204C1.29572 0.288401 2.19436 0 3.47335 0ZM2.01881 9.44201C2.01881 10.0021 2.1233 10.4117 2.33229 10.6708C2.54963 10.9216 2.93417 11.047 3.48589 11.047H20.5141C21.0658 11.047 21.4462 10.9216 21.6552 10.6708C21.8725 10.4117 21.9812 10.0021 21.9812 9.44201V3.48589C21.9812 2.93417 21.8725 2.52874 21.6552 2.26959C21.4462 2.01045 21.0658 1.88088 20.5141 1.88088H3.48589C2.93417 1.88088 2.54963 2.01045 2.33229 2.26959C2.1233 2.52874 2.01881 2.93417 2.01881 3.48589V9.44201Z" fill="#363A40"/>
</svg>
