<svg width="24" height="23" viewBox="0 0 24 23" fill="none" xmlns="http://www.w3.org/2000/svg">
<path d="M4.602 22.7398C4.37864 22.5741 4.24174 22.3507 4.1913 22.0697C4.14807 21.7887 4.1949 21.4537 4.3318 21.0646L6.59065 14.3421L0.819238 10.1918C0.480591 9.95407 0.24642 9.70909 0.116725 9.4569C-0.0129695 9.20472 -0.0345852 8.94533 0.0518779 8.67874C0.138341 8.41935 0.307665 8.2248 0.559849 8.09511C0.812033 7.96541 1.14708 7.90417 1.56498 7.91138L8.64415 7.95461L10.7949 1.19968C10.9246 0.803386 11.0867 0.504368 11.2813 0.302621C11.483 0.100874 11.7208 0 11.9946 0C12.2756 0 12.5134 0.100874 12.7079 0.302621C12.9097 0.504368 13.0754 0.803386 13.2051 1.19968L15.3558 7.95461L22.435 7.91138C22.8529 7.90417 23.188 7.96541 23.4402 8.09511C23.6923 8.2248 23.8617 8.41935 23.9481 8.67874C24.0346 8.94533 24.013 9.20472 23.8833 9.4569C23.7536 9.70909 23.5194 9.95407 23.1808 10.1918L17.4093 14.3421L19.6682 21.0646C19.8051 21.4537 19.8483 21.7887 19.7979 22.0697C19.7547 22.3507 19.6214 22.5741 19.398 22.7398C19.1746 22.9127 18.9225 22.9704 18.6414 22.9127C18.3604 22.8623 18.0542 22.7182 17.7228 22.4804L11.9946 18.2761L6.27722 22.4804C5.94578 22.7182 5.63956 22.8623 5.35855 22.9127C5.07755 22.9704 4.82536 22.9127 4.602 22.7398Z" fill="#363A40"/>
</svg>
