<svg width="24" height="24" viewBox="0 0 24 24" fill="none" xmlns="http://www.w3.org/2000/svg">
<path d="M0.980592 7.79969C0.326864 7.79969 0 7.46449 0 6.79407V3.78947C0 2.5304 0.318693 1.5861 0.956078 0.956566C1.60163 0.318855 2.56588 0 3.84883 0H6.83963C7.5097 0 7.84474 0.327031 7.84474 0.981094C7.84474 1.64333 7.5097 1.97445 6.83963 1.97445H3.87334C3.26047 1.97445 2.7906 2.13797 2.46374 2.465C2.13687 2.78385 1.97344 3.26214 1.97344 3.89985V6.79407C1.97344 7.46449 1.64249 7.79969 0.980592 7.79969ZM23.0072 7.79969C22.3534 7.79969 22.0266 7.46449 22.0266 6.79407V3.89985C22.0266 3.26214 21.859 2.78385 21.524 2.465C21.189 2.13797 20.7191 1.97445 20.1144 1.97445H17.1481C16.4862 1.97445 16.1553 1.64333 16.1553 0.981094C16.1553 0.327031 16.4862 0 17.1481 0H20.1512C21.4341 0 22.3943 0.318855 23.0317 0.956566C23.6772 1.5861 24 2.5304 24 3.78947V6.79407C24 7.46449 23.6691 7.79969 23.0072 7.79969ZM3.84883 24C2.56588 24 1.60163 23.6811 0.956078 23.0434C0.318693 22.4139 0 21.4655 0 20.1983V17.2059C0 16.5355 0.326864 16.2003 0.980592 16.2003C1.64249 16.2003 1.97344 16.5355 1.97344 17.2059V20.1002C1.97344 20.7379 2.13687 21.2161 2.46374 21.535C2.7906 21.862 3.26047 22.0255 3.87334 22.0255H6.83963C7.5097 22.0255 7.84474 22.3567 7.84474 23.0189C7.84474 23.673 7.5097 24 6.83963 24H3.84883ZM17.1481 24C16.4862 24 16.1553 23.673 16.1553 23.0189C16.1553 22.3567 16.4862 22.0255 17.1481 22.0255H20.1144C20.7191 22.0255 21.189 21.862 21.524 21.535C21.859 21.2161 22.0266 20.7379 22.0266 20.1002V17.2059C22.0266 16.5355 22.3534 16.2003 23.0072 16.2003C23.6691 16.2003 24 16.5355 24 17.2059V20.1983C24 21.4655 23.6772 22.4139 23.0317 23.0434C22.3943 23.6811 21.4341 24 20.1512 24H17.1481ZM6.65577 17.8804C6.50868 17.8804 6.38202 17.8314 6.27579 17.7333C6.16956 17.627 6.11645 17.4962 6.11645 17.3408V13.0731C6.11645 12.9177 6.16956 12.791 6.27579 12.6929C6.38202 12.5866 6.50868 12.5335 6.65577 12.5335H10.9213C11.0766 12.5335 11.2033 12.5866 11.3013 12.6929C11.4076 12.791 11.4607 12.9177 11.4607 13.0731V17.3408C11.4607 17.4962 11.4076 17.627 11.3013 17.7333C11.2033 17.8314 11.0766 17.8804 10.9213 17.8804H6.65577ZM7.18284 16.8135H10.3943V13.6004H7.18284V16.8135ZM8.12666 15.8692V14.5324H9.46272V15.8692H8.12666ZM6.65577 11.4665C6.50868 11.4665 6.38202 11.4175 6.27579 11.3194C6.16956 11.2131 6.11645 11.0864 6.11645 10.9392V6.65917C6.11645 6.51201 6.16956 6.38528 6.27579 6.279C6.38202 6.17271 6.50868 6.11957 6.65577 6.11957H10.9213C11.0766 6.11957 11.2033 6.17271 11.3013 6.279C11.4076 6.38528 11.4607 6.51201 11.4607 6.65917V10.9392C11.4607 11.0864 11.4076 11.2131 11.3013 11.3194C11.2033 11.4175 11.0766 11.4665 10.9213 11.4665H6.65577ZM7.18284 10.3996H10.3943V7.18651H7.18284V10.3996ZM8.12666 9.46755V8.11855H9.46272V9.46755H8.12666ZM13.0541 11.4665C12.907 11.4665 12.7804 11.4175 12.6742 11.3194C12.5679 11.2131 12.5148 11.0864 12.5148 10.9392V6.65917C12.5148 6.51201 12.5679 6.38528 12.6742 6.279C12.7804 6.17271 12.907 6.11957 13.0541 6.11957H17.332C17.4791 6.11957 17.6016 6.17271 17.6997 6.279C17.8059 6.38528 17.859 6.51201 17.859 6.65917V10.9392C17.859 11.0864 17.8059 11.2131 17.6997 11.3194C17.6016 11.4175 17.4791 11.4665 17.332 11.4665H13.0541ZM13.5812 10.3996H16.7926V7.18651H13.5812V10.3996ZM14.525 9.46755V8.11855H15.8611V9.46755H14.525ZM12.6742 17.721V16.3843H14.0102V17.721H12.6742ZM16.3636 17.721V16.3843H17.712V17.721H16.3636ZM14.525 15.8692V14.5324H15.8611V15.8692H14.525ZM12.6742 14.0174V12.6806H14.0102V14.0174H12.6742ZM16.3636 14.0174V12.6806H17.712V14.0174H16.3636Z" fill="#363A40"/>
</svg>
