<svg width="24" height="24" viewBox="0 0 24 24" fill="none" xmlns="http://www.w3.org/2000/svg">
<path d="M0 10.5422C0 9.08905 0.275909 7.72833 0.827728 6.46009C1.37955 5.18305 2.14497 4.06013 3.12401 3.09133C4.10304 2.12254 5.23338 1.36512 6.51502 0.819071C7.80556 0.273024 9.18511 0 10.6537 0C12.1222 0 13.4973 0.273024 14.7789 0.819071C16.0695 1.36512 17.2043 2.12254 18.1833 3.09133C19.1623 4.06013 19.9278 5.18305 20.4796 6.46009C21.0314 7.72833 21.3073 9.08905 21.3073 10.5422C21.3073 11.7488 21.1115 12.8938 20.7199 13.9771C20.3372 15.0603 19.8032 16.0423 19.1178 16.9231L23.5594 21.3578C23.7018 21.4988 23.8086 21.6617 23.8798 21.8466C23.9599 22.0316 24 22.2297 24 22.4411C24 22.7318 23.9332 22.996 23.7997 23.2338C23.6751 23.4716 23.4971 23.6565 23.2657 23.7886C23.0343 23.9295 22.7673 24 22.4647 24C22.2511 24 22.0464 23.9604 21.8506 23.8811C21.6637 23.8106 21.4901 23.7006 21.3299 23.5508L16.8483 19.1028C15.976 19.7194 15.0148 20.2038 13.9646 20.556C12.9143 20.9083 11.8107 21.0845 10.6537 21.0845C9.18511 21.0845 7.80556 20.8115 6.51502 20.2654C5.23338 19.7194 4.10304 18.9619 3.12401 17.9931C2.14497 17.0243 1.37955 15.9058 0.827728 14.6376C0.275909 13.3605 0 11.9954 0 10.5422ZM2.28293 10.5422C2.28293 11.6872 2.49653 12.7617 2.92375 13.7657C3.35986 14.7609 3.96063 15.6372 4.72606 16.3946C5.50039 17.1521 6.39042 17.7465 7.39615 18.1781C8.41078 18.6096 9.49662 18.8254 10.6537 18.8254C11.8107 18.8254 12.8921 18.6096 13.8978 18.1781C14.9125 17.7465 15.8025 17.1521 16.5679 16.3946C17.3333 15.6372 17.9341 14.7609 18.3702 13.7657C18.8063 12.7617 19.0244 11.6872 19.0244 10.5422C19.0244 9.3973 18.8063 8.32722 18.3702 7.33201C17.9341 6.32798 17.3333 5.44726 16.5679 4.68984C15.8025 3.92361 14.9125 3.32913 13.8978 2.90638C12.8921 2.47483 11.8107 2.25905 10.6537 2.25905C9.49662 2.25905 8.41078 2.47483 7.39615 2.90638C6.39042 3.32913 5.50039 3.92361 4.72606 4.68984C3.96063 5.44726 3.35986 6.32798 2.92375 7.33201C2.49653 8.32722 2.28293 9.3973 2.28293 10.5422Z" fill="#363A40"/>
</svg>
