<svg width="56" height="34" viewBox="0 0 56 34" fill="none" xmlns="http://www.w3.org/2000/svg">
<path d="M4.81201 22.249C4.04053 22.249 3.3667 22.1245 2.79053 21.8755C2.21924 21.6216 1.76514 21.2749 1.42822 20.8354C1.09619 20.3911 0.90332 19.8833 0.849609 19.312L0.842285 19.2314H2.16064L2.16797 19.312C2.20215 19.6636 2.33643 19.9688 2.5708 20.2275C2.81006 20.4814 3.12744 20.6792 3.52295 20.8208C3.92334 20.9624 4.37744 21.0332 4.88525 21.0332C5.36377 21.0332 5.78857 20.9575 6.15967 20.8062C6.53564 20.6499 6.83105 20.4351 7.0459 20.1616C7.26074 19.8882 7.36816 19.5732 7.36816 19.2168V19.2095C7.36816 18.77 7.20703 18.4014 6.88477 18.1035C6.5625 17.8008 6.0376 17.5688 5.31006 17.4077L4.13818 17.1514C3.07861 16.917 2.30713 16.5557 1.82373 16.0674C1.34521 15.5742 1.10596 14.9443 1.10596 14.1777V14.1704C1.11084 13.5845 1.26953 13.0669 1.58203 12.6177C1.89941 12.1685 2.33643 11.8169 2.89307 11.563C3.45459 11.3091 4.09912 11.1821 4.82666 11.1821C5.52979 11.1821 6.15234 11.3091 6.69434 11.563C7.23633 11.812 7.66602 12.1489 7.9834 12.5737C8.30566 12.9985 8.48389 13.4746 8.51807 14.002L8.52539 14.1045H7.20703L7.19238 14.0093C7.14355 13.6968 7.0166 13.4209 6.81152 13.1816C6.60645 12.9375 6.33301 12.7446 5.99121 12.603C5.64941 12.4614 5.24902 12.3931 4.79004 12.3979C4.35059 12.3979 3.95508 12.4663 3.60352 12.603C3.25195 12.7397 2.97119 12.9375 2.76123 13.1963C2.55615 13.4502 2.45361 13.7627 2.45361 14.1338V14.1411C2.45361 14.561 2.60986 14.915 2.92236 15.2031C3.23486 15.4912 3.75 15.7134 4.46777 15.8696L5.63965 16.1333C6.37695 16.2944 6.97021 16.5044 7.41943 16.7632C7.86865 17.022 8.1958 17.3394 8.40088 17.7153C8.61084 18.0864 8.71582 18.5259 8.71582 19.0337V19.041C8.71582 19.7002 8.55469 20.269 8.23242 20.7476C7.91016 21.2261 7.45605 21.5972 6.87012 21.8608C6.28418 22.1196 5.59814 22.249 4.81201 22.249ZM13.7446 22.1392C12.9927 22.1392 12.3457 21.9731 11.8037 21.6411C11.2666 21.3091 10.8515 20.8403 10.5586 20.2349C10.2705 19.6245 10.1264 18.9067 10.1264 18.0815V18.0742C10.1264 17.2588 10.2705 16.5435 10.5586 15.9282C10.8515 15.313 11.2641 14.832 11.7964 14.4854C12.3286 14.1387 12.9512 13.9653 13.664 13.9653C14.3818 13.9653 14.9971 14.1313 15.5097 14.4634C16.0273 14.7954 16.4228 15.2593 16.6963 15.855C16.9746 16.4458 17.1138 17.1343 17.1138 17.9204V18.4185H10.7856V17.4004H16.4619L15.832 18.3306V17.8252C15.832 17.2051 15.7392 16.6948 15.5537 16.2944C15.3681 15.894 15.1118 15.5962 14.7846 15.4009C14.4575 15.2007 14.0815 15.1006 13.6567 15.1006C13.2319 15.1006 12.8511 15.2056 12.5141 15.4155C12.1821 15.6206 11.9184 15.9258 11.7231 16.3311C11.5278 16.7363 11.4302 17.2344 11.4302 17.8252V18.3306C11.4302 18.8921 11.5254 19.373 11.7158 19.7734C11.9062 20.1689 12.1772 20.4741 12.5288 20.689C12.8804 20.8989 13.2954 21.0039 13.7739 21.0039C14.1304 21.0039 14.4404 20.9551 14.7041 20.8574C14.9678 20.7598 15.185 20.6353 15.3559 20.4839C15.5268 20.3325 15.6465 20.1787 15.7148 20.0225L15.7441 19.9565H17.0185L17.0039 20.0151C16.9355 20.2837 16.8135 20.5449 16.6377 20.7988C16.4668 21.0479 16.2446 21.2749 15.9712 21.48C15.6977 21.6802 15.373 21.8413 14.9971 21.9634C14.626 22.0806 14.2085 22.1392 13.7446 22.1392ZM22.0839 22.1392C21.332 22.1392 20.685 21.9731 20.143 21.6411C19.6059 21.3091 19.1909 20.8403 18.8979 20.2349C18.6098 19.6245 18.4658 18.9067 18.4658 18.0815V18.0742C18.4658 17.2588 18.6098 16.5435 18.8979 15.9282C19.1909 15.313 19.6035 14.832 20.1357 14.4854C20.6679 14.1387 21.2905 13.9653 22.0034 13.9653C22.7212 13.9653 23.3364 14.1313 23.8491 14.4634C24.3667 14.7954 24.7622 15.2593 25.0356 15.855C25.3139 16.4458 25.4531 17.1343 25.4531 17.9204V18.4185H19.125V17.4004H24.8012L24.1713 18.3306V17.8252C24.1713 17.2051 24.0786 16.6948 23.893 16.2944C23.7075 15.894 23.4511 15.5962 23.124 15.4009C22.7968 15.2007 22.4209 15.1006 21.9961 15.1006C21.5713 15.1006 21.1904 15.2056 20.8535 15.4155C20.5214 15.6206 20.2578 15.9258 20.0625 16.3311C19.8671 16.7363 19.7695 17.2344 19.7695 17.8252V18.3306C19.7695 18.8921 19.8647 19.373 20.0551 19.7734C20.2456 20.1689 20.5166 20.4741 20.8681 20.689C21.2197 20.8989 21.6347 21.0039 22.1132 21.0039C22.4697 21.0039 22.7797 20.9551 23.0434 20.8574C23.3071 20.7598 23.5244 20.6353 23.6953 20.4839C23.8662 20.3325 23.9858 20.1787 24.0542 20.0225L24.0835 19.9565H25.3579L25.3432 20.0151C25.2749 20.2837 25.1528 20.5449 24.977 20.7988C24.8061 21.0479 24.5839 21.2749 24.3105 21.48C24.0371 21.6802 23.7124 21.8413 23.3364 21.9634C22.9653 22.0806 22.5478 22.1392 22.0839 22.1392ZM33.3573 22.1392C32.8593 22.1392 32.4101 22.0439 32.0097 21.8535C31.6142 21.6631 31.2992 21.3921 31.0649 21.0405C30.8354 20.689 30.7206 20.2739 30.7206 19.7954V19.7808C30.7206 19.312 30.8329 18.9116 31.0575 18.5796C31.2821 18.2427 31.6093 17.979 32.039 17.7886C32.4687 17.5981 32.9887 17.4858 33.599 17.4517L36.4994 17.2759V18.2939L33.7529 18.4697C33.1523 18.5039 32.7128 18.6284 32.4345 18.8433C32.1611 19.0581 32.0243 19.3608 32.0243 19.7515V19.7661C32.0243 20.1665 32.1757 20.479 32.4784 20.7036C32.7812 20.9233 33.162 21.0332 33.621 21.0332C34.0556 21.0332 34.4413 20.9478 34.7782 20.7769C35.1152 20.6011 35.3788 20.3643 35.5693 20.0664C35.7646 19.7686 35.8622 19.4316 35.8622 19.0557V16.5947C35.8622 16.1064 35.7133 15.7354 35.4154 15.4814C35.1225 15.2227 34.6806 15.0933 34.0898 15.0933C33.6161 15.0933 33.2279 15.1787 32.9252 15.3496C32.6225 15.5156 32.4198 15.7524 32.3173 16.0601L32.31 16.082H31.0356L31.0429 16.0381C31.1112 15.623 31.2821 15.2617 31.5556 14.9541C31.8339 14.6416 32.1928 14.3999 32.6322 14.229C33.0717 14.0532 33.5722 13.9653 34.1337 13.9653C34.7782 13.9653 35.3227 14.0703 35.767 14.2803C36.2162 14.4902 36.5556 14.793 36.7851 15.1885C37.0195 15.5791 37.1366 16.0479 37.1366 16.5947V22H35.8622V20.8354H35.745C35.579 21.1138 35.3764 21.3506 35.1371 21.5459C34.9028 21.7412 34.6366 21.8901 34.3388 21.9927C34.0409 22.0903 33.7138 22.1392 33.3573 22.1392ZM39.309 22V10.9697H40.5834V22H39.309ZM42.8729 22V10.9697H44.1473V22H42.8729Z" fill="#81D8D0"/>
<path fill-rule="evenodd" clip-rule="evenodd" d="M51.2246 11.2386L55.7899 16.4239C56.07 16.7421 56.07 17.2579 55.7899 17.5761L51.2246 22.7614C50.9445 23.0795 50.4903 23.0795 50.2101 22.7614C49.93 22.4432 49.93 21.9273 50.2101 21.6091L54.2681 17L50.2101 12.3909C49.93 12.0727 49.93 11.5568 50.2101 11.2386C50.4903 10.9205 50.9445 10.9205 51.2246 11.2386Z" fill="#81D8D0"/>
</svg>
