<svg width="24" height="22" viewBox="0 0 24 22" fill="none" xmlns="http://www.w3.org/2000/svg">
<path d="M14.589 19.4956V12.8496C14.589 12.615 14.5186 12.4307 14.3779 12.2966C14.2438 12.1558 14.0595 12.0855 13.8249 12.0855H10.1751C9.94721 12.0855 9.75953 12.1558 9.61207 12.2966C9.4713 12.4307 9.40092 12.615 9.40092 12.8496V19.4956H14.589ZM3.13699 18.8923V10.9292L11.4018 4.00168C11.8039 3.65982 12.2061 3.65982 12.6083 4.00168L20.8731 10.9292V18.8923C20.8731 19.5961 20.672 20.1424 20.2698 20.5312C19.8743 20.92 19.3247 21.1144 18.6209 21.1144H5.39925C4.68873 21.1144 4.13238 20.92 3.73021 20.5312C3.33473 20.1424 3.13699 19.5961 3.13699 18.8923ZM0 9.92375C0 9.66234 0.107248 9.44449 0.321743 9.27021L10.7985 0.47256C11.1739 0.15752 11.576 0 12.005 0C12.4407 0 12.8463 0.15752 13.2216 0.47256L23.6883 9.27021C23.8961 9.44449 24 9.67239 24 9.95392C24 10.1952 23.9162 10.3863 23.7486 10.527C23.5811 10.6611 23.38 10.7281 23.1454 10.7281C23.0046 10.7281 22.8739 10.6946 22.7532 10.6276C22.6393 10.5605 22.532 10.4868 22.4315 10.4064L12.367 1.96062C12.253 1.86008 12.1324 1.8098 12.005 1.8098C11.8844 1.8098 11.7671 1.86008 11.6531 1.96062L1.5886 10.4064C1.48136 10.4868 1.36741 10.5605 1.24675 10.6276C1.1328 10.6946 1.00545 10.7281 0.864684 10.7281C0.596565 10.7281 0.385421 10.6477 0.231253 10.4868C0.0770842 10.3192 0 10.1315 0 9.92375ZM18.3494 5.38919V2.87558C18.3494 2.65438 18.4164 2.4801 18.5505 2.35274C18.6845 2.21868 18.8588 2.15165 19.0733 2.15165H20.1491C20.3703 2.15165 20.5446 2.21868 20.672 2.35274C20.806 2.4801 20.8731 2.65438 20.8731 2.87558V7.52074L18.3494 5.38919Z" fill="#FFB84E"/>
</svg>
