<svg width="24" height="24" viewBox="0 0 24 24" fill="none" xmlns="http://www.w3.org/2000/svg">
<path d="M12 24C10.3608 24 8.81569 23.6863 7.36471 23.0588C5.92157 22.4314 4.64706 21.5647 3.54118 20.4588C2.43529 19.3529 1.56863 18.0784 0.941176 16.6353C0.313725 15.1843 0 13.6392 0 12C0 10.3608 0.313725 8.81961 0.941176 7.37647C1.56863 5.92549 2.43137 4.64706 3.52941 3.54118C4.63529 2.43529 5.9098 1.56863 7.35294 0.941176C8.80392 0.313725 10.349 0 11.9882 0C13.6275 0 15.1725 0.313725 16.6235 0.941176C18.0745 1.56863 19.3529 2.43529 20.4588 3.54118C21.5647 4.64706 22.4314 5.92549 23.0588 7.37647C23.6863 8.81961 24 10.3608 24 12C24 13.6392 23.6863 15.1843 23.0588 16.6353C22.4314 18.0784 21.5647 19.3529 20.4588 20.4588C19.3529 21.5647 18.0745 22.4314 16.6235 23.0588C15.1804 23.6863 13.6392 24 12 24ZM12 22C13.3882 22 14.6863 21.7412 15.8941 21.2235C17.102 20.7059 18.1647 19.9922 19.0824 19.0824C20 18.1647 20.7137 17.102 21.2235 15.8941C21.7412 14.6863 22 13.3882 22 12C22 10.6118 21.7412 9.31373 21.2235 8.10588C20.7059 6.89804 19.9882 5.83529 19.0706 4.91765C18.1608 4 17.098 3.28627 15.8824 2.77647C14.6745 2.25882 13.3765 2 11.9882 2C10.6 2 9.30196 2.25882 8.09412 2.77647C6.88627 3.28627 5.82745 4 4.91765 4.91765C4.00784 5.83529 3.29412 6.89804 2.77647 8.10588C2.26667 9.31373 2.01176 10.6118 2.01176 12C2.01176 13.3882 2.26667 14.6863 2.77647 15.8941C3.29412 17.102 4.00784 18.1647 4.91765 19.0824C5.83529 19.9922 6.89804 20.7059 8.10588 21.2235C9.31373 21.7412 10.6118 22 12 22ZM10.7059 17.5765C10.5098 17.5765 10.3294 17.5333 10.1647 17.4471C10.0078 17.3608 9.8549 17.2235 9.70588 17.0353L6.83529 13.5059C6.6549 13.2627 6.56471 13.0196 6.56471 12.7765C6.56471 12.5176 6.65098 12.298 6.82353 12.1176C7.00392 11.9294 7.21961 11.8353 7.47059 11.8353C7.63529 11.8353 7.78431 11.8706 7.91765 11.9412C8.05882 12.0039 8.2 12.1294 8.34118 12.3176L10.6588 15.3176L15.5412 7.48235C15.7608 7.12941 16.0353 6.95294 16.3647 6.95294C16.6078 6.95294 16.8274 7.03137 17.0235 7.18824C17.2196 7.3451 17.3176 7.55294 17.3176 7.81176C17.3176 7.9451 17.2863 8.07843 17.2235 8.21176C17.1686 8.33725 17.1059 8.4549 17.0353 8.56471L11.6588 17.0353C11.4235 17.3961 11.1059 17.5765 10.7059 17.5765Z" fill="#363A40"/>
</svg>
