<svg width="24" height="21" viewBox="0 0 24 21" fill="none" xmlns="http://www.w3.org/2000/svg">
<path d="M14.5394 14.1384H19.3031C20.3469 14.1384 21.1329 13.8998 21.6611 13.4224C22.1957 12.9387 22.463 12.3309 22.463 11.599C22.463 10.778 22.2021 10.1002 21.6802 9.56563C21.1647 9.03103 20.4741 8.66826 19.6086 8.47733C19.494 8.45823 19.4431 8.38504 19.4558 8.25776C19.4749 8.035 19.4877 7.8027 19.494 7.56086C19.5068 7.31265 19.5068 7.08035 19.494 6.86396C19.4431 5.91567 19.1822 5.03739 18.7112 4.22912C18.2403 3.42084 17.6038 2.77168 16.8019 2.28162C16 1.7852 15.0772 1.53699 14.0334 1.53699C13.2124 1.53699 12.4964 1.67383 11.8854 1.94749C11.2808 2.22116 10.7621 2.58711 10.3294 3.04535C9.89658 3.49722 9.52426 4 9.21241 4.5537C9.1615 4.6428 9.08194 4.67144 8.97375 4.63962C8.31822 4.44869 7.6786 4.42323 7.05489 4.56325C6.43119 4.6969 5.91567 5.02784 5.50835 5.55609C5.10103 6.07796 4.89738 6.82896 4.89738 7.80907C4.89738 7.94272 4.83691 8.00955 4.71599 8.00955C3.70406 8.00955 2.92124 8.31185 2.36754 8.91647C1.81384 9.51472 1.53699 10.2721 1.53699 11.1885C1.53699 11.7359 1.66746 12.2323 1.9284 12.6778C2.18934 13.1233 2.57438 13.4797 3.08353 13.747C3.59905 14.008 4.2323 14.1384 4.98329 14.1384H9.54654V15.6754H4.99284C3.94909 15.6754 3.05489 15.4749 2.31026 15.074C1.56563 14.6667 0.99284 14.1257 0.591885 13.4511C0.197295 12.7701 0 12.0159 0 11.1885C0 10.4375 0.140016 9.75338 0.420048 9.13604C0.706444 8.51869 1.11058 8.00955 1.63246 7.60859C2.1607 7.20127 2.78441 6.94352 3.50358 6.83532C3.51631 6.1607 3.67542 5.55927 3.98091 5.03103C4.29276 4.50278 4.69372 4.06683 5.18377 3.72315C5.67383 3.37311 6.20525 3.13763 6.77804 3.01671C7.3572 2.89578 7.91726 2.90851 8.45823 3.05489C8.8401 2.50119 9.29833 1.99204 9.83294 1.52745C10.3739 1.06285 10.9912 0.693715 11.685 0.420048C12.385 0.140016 13.1679 0 14.0334 0C15.0135 0 15.9236 0.181384 16.7637 0.544153C17.6102 0.906921 18.3484 1.41607 18.9785 2.0716C19.615 2.72713 20.1082 3.50358 20.4582 4.40095C20.8083 5.29196 20.9833 6.26889 20.9833 7.33174C21.9189 7.7136 22.6539 8.28003 23.1885 9.03103C23.7295 9.77566 24 10.6317 24 11.599C24 12.3691 23.8123 13.0628 23.4368 13.6802C23.0676 14.2912 22.533 14.778 21.8329 15.1408C21.1329 15.4972 20.2928 15.6754 19.3127 15.6754H14.5394V14.1384ZM12.0477 20.5632C11.8377 20.5632 11.6563 20.4901 11.5036 20.3437C11.3572 20.1973 11.284 20.0255 11.284 19.8282V10.8735L11.3413 9.1074L10.7017 9.7852L9.2506 11.2267C9.09785 11.3795 8.92283 11.4558 8.72554 11.4558C8.52824 11.4558 8.36277 11.3954 8.22912 11.2745C8.10183 11.1472 8.03819 10.9849 8.03819 10.7876C8.03819 10.5839 8.11456 10.4153 8.2673 10.2816L11.494 7.26492C11.5959 7.17582 11.6881 7.11217 11.7709 7.07399C11.8536 7.0358 11.9459 7.01671 12.0477 7.01671C12.1432 7.01671 12.2323 7.0358 12.315 7.07399C12.4041 7.11217 12.4964 7.17582 12.5919 7.26492L15.8186 10.2816C15.9714 10.4153 16.0477 10.5839 16.0477 10.7876C16.0477 10.9849 15.9809 11.1472 15.8473 11.2745C15.7136 11.3954 15.5481 11.4558 15.3508 11.4558C15.1599 11.4558 14.9881 11.3795 14.8353 11.2267L13.3842 9.7852L12.7446 9.1074L12.8019 10.8735V19.8282C12.8019 20.0255 12.7255 20.1973 12.5728 20.3437C12.4264 20.4901 12.2514 20.5632 12.0477 20.5632Z" fill="#363A40"/>
</svg>
