<svg width="24" height="24" viewBox="0 0 24 24" fill="none" xmlns="http://www.w3.org/2000/svg">
<path d="M3.36577 24C1.12192 24 0 23.3089 0 21.9266C0 21.0799 0.274757 20.1771 0.82427 19.2181C1.37378 18.2592 2.166 17.3564 3.20092 16.5097C4.24499 15.6544 5.50429 14.959 6.97882 14.4233C8.46251 13.8877 10.1385 13.6199 12.0069 13.6199C13.8661 13.6199 15.5329 13.8877 17.0074 14.4233C18.4911 14.959 19.7504 15.6544 20.7853 16.5097C21.8294 17.3564 22.6262 18.2592 23.1757 19.2181C23.7252 20.1771 24 21.0799 24 21.9266C24 23.3089 22.8781 24 20.6342 24H3.36577ZM2.72009 22.0432H21.2936C21.4677 22.0432 21.5913 22.0173 21.6646 21.9654C21.747 21.9136 21.7882 21.8186 21.7882 21.6803C21.7882 21.1533 21.573 20.5443 21.1425 19.8531C20.7212 19.1533 20.0939 18.4795 19.2604 17.8315C18.427 17.1836 17.4013 16.6479 16.1832 16.2246C14.9742 15.7927 13.5821 15.5767 12.0069 15.5767C10.4316 15.5767 9.03492 15.7927 7.81683 16.2246C6.59874 16.6479 5.57298 17.1836 4.73955 17.8315C3.90612 18.4795 3.27418 19.1533 2.84373 19.8531C2.42244 20.5443 2.21179 21.1533 2.21179 21.6803C2.21179 21.8186 2.24843 21.9136 2.32169 21.9654C2.40412 22.0173 2.53692 22.0432 2.72009 22.0432ZM12.0069 12.013C10.917 12.013 9.9233 11.7408 9.02576 11.1965C8.12822 10.6436 7.40927 9.90929 6.86892 8.99352C6.33772 8.06911 6.07212 7.054 6.07212 5.94816C6.07212 4.85097 6.33772 3.85313 6.86892 2.95464C7.40927 2.05616 8.12822 1.33909 9.02576 0.803456C9.9233 0.267819 10.917 0 12.0069 0C13.1059 0 14.1042 0.263499 15.0017 0.790497C15.8993 1.31749 16.6136 2.03024 17.1448 2.92873C17.676 3.81857 17.9416 4.81641 17.9416 5.92225C17.9416 7.03672 17.6714 8.05616 17.1311 8.98056C16.5999 9.89633 15.8855 10.6307 14.988 11.1836C14.0904 11.7365 13.0967 12.013 12.0069 12.013ZM12.0069 10.0562C12.6846 10.0562 13.3028 9.87041 13.8615 9.49892C14.4293 9.12743 14.8827 8.63067 15.2215 8.00864C15.5604 7.37797 15.7298 6.68251 15.7298 5.92225C15.7298 5.17063 15.5604 4.49676 15.2215 3.90065C14.8918 3.2959 14.443 2.82073 13.8752 2.47516C13.3165 2.12959 12.6938 1.9568 12.0069 1.9568C11.3291 1.9568 10.7064 2.13391 10.1385 2.48812C9.57985 2.84233 9.13108 3.32181 8.79221 3.92657C8.45335 4.52268 8.28391 5.19654 8.28391 5.94816C8.28391 6.70842 8.45335 7.39957 8.79221 8.0216C9.14024 8.64363 9.59359 9.14039 10.1523 9.51188C10.7201 9.87473 11.3383 10.0562 12.0069 10.0562Z" fill="#A0ABBC"/>
</svg>
