<svg width="24" height="24" viewBox="0 0 24 24" fill="none" xmlns="http://www.w3.org/2000/svg">
<path d="M12 24C10.3608 24 8.81569 23.6863 7.36471 23.0588C5.92157 22.4314 4.64706 21.5647 3.54118 20.4588C2.43529 19.3529 1.56863 18.0784 0.941176 16.6353C0.313725 15.1843 0 13.6392 0 12C0 10.3608 0.313725 8.81961 0.941176 7.37647C1.56863 5.92549 2.43137 4.64706 3.52941 3.54118C4.63529 2.43529 5.9098 1.56863 7.35294 0.941176C8.80392 0.313725 10.349 0 11.9882 0C13.6275 0 15.1725 0.313725 16.6235 0.941176C18.0745 1.56863 19.3529 2.43529 20.4588 3.54118C21.5647 4.64706 22.4314 5.92549 23.0588 7.37647C23.6863 8.81961 24 10.3608 24 12C24 13.6392 23.6863 15.1843 23.0588 16.6353C22.4314 18.0784 21.5647 19.3529 20.4588 20.4588C19.3529 21.5647 18.0745 22.4314 16.6235 23.0588C15.1804 23.6863 13.6392 24 12 24ZM12 22C13.3882 22 14.6863 21.7412 15.8941 21.2235C17.102 20.7059 18.1647 19.9922 19.0824 19.0824C20 18.1647 20.7137 17.102 21.2235 15.8941C21.7412 14.6863 22 13.3882 22 12C22 10.6118 21.7412 9.31373 21.2235 8.10588C20.7059 6.89804 19.9882 5.83529 19.0706 4.91765C18.1608 4 17.098 3.28627 15.8824 2.77647C14.6745 2.25882 13.3765 2 11.9882 2C10.6 2 9.30196 2.25882 8.09412 2.77647C6.88627 3.28627 5.82745 4 4.91765 4.91765C4.00784 5.83529 3.29412 6.89804 2.77647 8.10588C2.26667 9.31373 2.01176 10.6118 2.01176 12C2.01176 13.3882 2.26667 14.6863 2.77647 15.8941C3.29412 17.102 4.00784 18.1647 4.91765 19.0824C5.83529 19.9922 6.89804 20.7059 8.10588 21.2235C9.31373 21.7412 10.6118 22 12 22ZM11.9882 16.9647C11.0627 16.9647 10.1961 16.8353 9.38824 16.5765C8.58039 16.3098 7.84706 15.9725 7.18824 15.5647C6.53725 15.149 5.97647 14.7137 5.50588 14.2588C5.04314 13.7961 4.68627 13.3647 4.43529 12.9647C4.18431 12.5569 4.05882 12.2353 4.05882 12C4.05882 11.7647 4.18431 11.4471 4.43529 11.0471C4.68627 10.6392 5.04314 10.2078 5.50588 9.75294C5.97647 9.2902 6.53725 8.8549 7.18824 8.44706C7.83922 8.03137 8.56863 7.69412 9.37647 7.43529C10.1843 7.16863 11.0549 7.03529 11.9882 7.03529C12.9216 7.03529 13.7922 7.16863 14.6 7.43529C15.4078 7.69412 16.1373 8.03137 16.7882 8.44706C17.4392 8.8549 17.9961 9.2902 18.4588 9.75294C18.9216 10.2078 19.2784 10.6392 19.5294 11.0471C19.7804 11.4471 19.9059 11.7647 19.9059 12C19.9059 12.2353 19.7804 12.5569 19.5294 12.9647C19.2784 13.3647 18.9216 13.7961 18.4588 14.2588C17.9961 14.7137 17.4392 15.149 16.7882 15.5647C16.1373 15.9725 15.4078 16.3098 14.6 16.5765C13.7922 16.8353 12.9216 16.9647 11.9882 16.9647ZM11.9882 15.2471C12.5843 15.2471 13.1294 15.102 13.6235 14.8118C14.1176 14.5137 14.5098 14.1176 14.8 13.6235C15.0902 13.1294 15.2353 12.5882 15.2353 12C15.2353 11.3961 15.0902 10.851 14.8 10.3647C14.5098 9.87059 14.1176 9.47843 13.6235 9.18824C13.1294 8.89804 12.5843 8.75294 11.9882 8.75294C11.3843 8.75294 10.8353 8.89804 10.3412 9.18824C9.84706 9.47843 9.45098 9.87059 9.15294 10.3647C8.86275 10.851 8.71765 11.3961 8.71765 12C8.71765 12.5882 8.86275 13.1294 9.15294 13.6235C9.45098 14.1176 9.84706 14.5137 10.3412 14.8118C10.8353 15.102 11.3843 15.2471 11.9882 15.2471ZM12 13.4353C11.6078 13.4353 11.2667 13.2902 10.9765 13C10.6941 12.7098 10.5529 12.3765 10.5529 12C10.5529 11.6235 10.6941 11.2902 10.9765 11C11.2667 10.7098 11.6078 10.5647 12 10.5647C12.3765 10.5647 12.7059 10.7098 12.9882 11C13.2784 11.2902 13.4235 11.6235 13.4235 12C13.4235 12.3765 13.2784 12.7098 12.9882 13C12.7059 13.2902 12.3765 13.4353 12 13.4353Z" fill="#363A40"/>
</svg>
