<svg width="24" height="22" viewBox="0 0 24 22" fill="none" xmlns="http://www.w3.org/2000/svg">
<path d="M0 7.23747C0 6.17502 0.169184 5.20443 0.507553 4.32571C0.853978 3.439 1.33736 2.67211 1.9577 2.02505C2.57805 1.378 3.30312 0.878722 4.13293 0.527233C4.9708 0.175744 5.87714 0 6.85196 0C7.9718 0 8.97482 0.243646 9.86103 0.730937C10.7472 1.21823 11.4602 1.86529 12 2.67211C12.5478 1.86529 13.2608 1.21823 14.139 0.730937C15.0252 0.243646 16.0282 0 17.148 0C18.1309 0 19.0373 0.175744 19.8671 0.527233C20.7049 0.878722 21.43 1.378 22.0423 2.02505C22.6626 2.67211 23.142 3.439 23.4804 4.32571C23.8268 5.20443 24 6.17502 24 7.23747C24 8.939 23.5448 10.6245 22.6344 12.2941C21.7321 13.9557 20.4471 15.5773 18.7795 17.159C17.1198 18.7328 15.1541 20.2386 12.8822 21.6765C12.7533 21.7564 12.6042 21.8282 12.435 21.8922C12.2739 21.9641 12.1289 22 12 22C11.8792 22 11.7341 21.9641 11.565 21.8922C11.4038 21.8282 11.2588 21.7564 11.1299 21.6765C8.85801 20.2386 6.88822 18.7328 5.22054 17.159C3.55287 15.5773 2.26385 13.9557 1.35347 12.2941C0.451158 10.6245 0 8.939 0 7.23747ZM1.94562 7.23747C1.94562 8.34786 2.21551 9.47422 2.75529 10.6166C3.29507 11.7509 4.0282 12.8653 4.95468 13.9597C5.88117 15.0541 6.9285 16.1006 8.09668 17.0991C9.27291 18.0897 10.4935 19.0004 11.7583 19.8312C11.8872 19.927 11.9678 19.9749 12 19.9749C12.0322 19.9749 12.1168 19.927 12.2538 19.8312C13.5186 19.0004 14.7351 18.0897 15.9033 17.0991C17.0796 16.1006 18.1269 15.0541 19.0453 13.9597C19.9718 12.8653 20.7049 11.7509 21.2447 10.6166C21.7845 9.47422 22.0544 8.34786 22.0544 7.23747C22.0544 6.17502 21.8409 5.24837 21.4139 4.45752C20.995 3.65868 20.4149 3.03958 19.6737 2.60022C18.9406 2.15287 18.1067 1.92919 17.1722 1.92919C16.4149 1.92919 15.7623 2.065 15.2145 2.3366C14.6747 2.60022 14.2075 2.93573 13.8127 3.34314C13.426 3.74256 13.0957 4.13798 12.8218 4.52941C12.6445 4.76107 12.4995 4.92084 12.3867 5.00871C12.2739 5.09659 12.145 5.14052 12 5.14052C11.855 5.14052 11.7221 5.10058 11.6012 5.0207C11.4884 4.93283 11.3474 4.76906 11.1782 4.52941C10.9204 4.12999 10.5982 3.73057 10.2115 3.33115C9.82477 2.93174 9.35347 2.60022 8.79758 2.3366C8.24169 2.065 7.5851 1.92919 6.82779 1.92919C5.89325 1.92919 5.05539 2.15287 4.3142 2.60022C3.58107 3.03958 3.00101 3.65868 2.57402 4.45752C2.15509 5.24837 1.94562 6.17502 1.94562 7.23747Z" fill="#363A40"/>
</svg>
